<?xml version="1.0" encoding="utf-8"?>
<!-- Generator: Adobe Illustrator 24.1.2, SVG Export Plug-In . SVG Version: 6.00 Build 0)  -->
<svg version="1.1" id="レイヤー_1" xmlns="http://www.w3.org/2000/svg" xmlns:xlink="http://www.w3.org/1999/xlink" x="0px"
	 y="0px" viewBox="0 0 147.62 122.62" style="enable-background:new 0 0 147.62 122.62;" xml:space="preserve">
<style type="text/css">
	.st0{fill:none;}
	.st1{fill:#1C6FA3;}
	.st2{opacity:0.6;fill:url(#SVGID_1_);}
	.st3{fill:#FFFFFF;}
	.st4{fill:none;stroke:#FFFFFF;stroke-width:2;stroke-linejoin:round;}
	.st5{fill:#1C2A55;}
</style>
<pattern  x="-228.95" y="-163.43" width="36.88" height="18.41" patternUnits="userSpaceOnUse" id="新規パターンスウォッチ_1" viewBox="0 -18.41 36.88 18.41" style="overflow:visible;">
	<g>
		<rect x="0" y="-18.41" class="st0" width="36.88" height="18.41"/>
		<g>
			<path class="st1" d="M0.06-15.34c5.39,0,10.13,2.78,12.87,6.99c-1.01,0.32-1.98,0.72-2.9,1.2c-2.23-3.1-5.86-5.12-9.97-5.12
				c-0.02,0-0.04,0-0.06,0v3.07c0.02,0,0.04,0,0.06,0c3.01,0,5.68,1.45,7.36,3.68C6.6-4.9,5.82-4.22,5.12-3.47
				C4.01-5.08,2.16-6.14,0.06-6.14c-0.02,0-0.04,0-0.06,0v3.07c0.02,0,0.04,0,0.06,0c1.42,0,2.6,0.96,2.96,2.26
				C2.84-0.54,2.68-0.27,2.52,0h3.67c2.8-3.73,7.26-6.14,12.28-6.14S27.94-3.73,30.74,0h3.67c-0.16-0.27-0.32-0.54-0.49-0.81
				c0.35-1.3,1.54-2.26,2.96-2.26v-3.07c-2.1,0-3.95,1.06-5.06,2.67c-0.71-0.75-1.48-1.43-2.3-2.05c1.68-2.24,4.35-3.68,7.36-3.68
				v-3.07c-4.11,0-7.74,2.02-9.97,5.12c-0.92-0.48-1.89-0.88-2.9-1.2c2.74-4.21,7.48-6.99,12.87-6.99v-3.07
				c-0.81,0-1.6,0.05-2.38,0.15c-0.03-0.05-0.06-0.1-0.09-0.15h-3.67c0.21,0.28,0.41,0.56,0.6,0.85c-1.01,0.32-1.98,0.72-2.9,1.2
				c-0.54-0.75-1.16-1.44-1.85-2.05h-8.11c3.01,0,5.68,1.45,7.36,3.68c-0.82,0.62-1.6,1.31-2.3,2.05c-1.11-1.61-2.96-2.67-5.06-2.67
				s-3.95,1.06-5.06,2.67c-0.71-0.75-1.48-1.43-2.3-2.05c1.68-2.24,4.35-3.68,7.36-3.68h-8.11c-0.69,0.61-1.31,1.3-1.85,2.05
				c-0.92-0.48-1.89-0.88-2.9-1.2c0.19-0.29,0.39-0.57,0.6-0.85H2.52c-0.03,0.05-0.06,0.1-0.09,0.15c-0.78-0.1-1.57-0.15-2.38-0.15
				c-0.02,0-0.04,0-0.06,0v3.07C0.02-15.34,0.04-15.34,0.06-15.34z M18.47-12.27c1.42,0,2.6,0.96,2.96,2.26
				c-0.2,0.31-0.4,0.63-0.58,0.96c-0.78-0.1-1.57-0.15-2.38-0.15s-1.6,0.05-2.38,0.15c-0.18-0.33-0.38-0.64-0.58-0.96
				C15.86-11.31,17.05-12.27,18.47-12.27z"/>
			<path class="st1" d="M18.47-3.07c-3.11,0-5.95,1.16-8.11,3.07h16.23C24.42-1.91,21.58-3.07,18.47-3.07z"/>
		</g>
	</g>
</pattern>
<pattern  id="SVGID_1_" xlink:href="#譁ｰ隕上ヱ繧ｿ繝ｼ繝ｳ繧ｹ繧ｦ繧ｩ繝メ_1" patternTransform="matrix(0.3127 0 0 0.3127 -5218.709 -5183.0801)">
</pattern>
<ellipse class="st2" cx="80.95" cy="77.47" rx="50" ry="8.91"/>
<path class="st3" d="M39.95,41.56c0,0,5.69-3.38,8.85-3.19c3.15,0.19,11.15,0.19,11.15,0.19l4,1l11.54-0.81l12.46,2.81l10,10l1,10
	l-1,11v11l-2.05,2.42l-1.77-8.51h-2.07l-2.11,0.09l-4.34-1.92l-5.66,0.92l5-5l5.89-0.88l5.11-3.12l0.01-6.36l-2.01-4.64l-5.16,0.11
	l-3.84,1.89l-2,1l-5.27,0.18l-4.73-0.18l4,9l2,4l-5.98-4.22l-3.71-4.34l-2.31-1.44l-1-2l-5-1l1,11l-5-6l-1-7l-4-5l-6-6l-5-1
	L39.95,41.56z"/>
<g>
	<g>
		<path class="st4" d="M41.69,39.71c0,0,2.16-1.48,3.95-1.77c1.78-0.28,3.83,0.31,4.42,0.34c0.59,0.04,1.37-0.04,1.65,0.02
			c0.28,0.06,0.85,0.44,1.38,0.37c0.52-0.07,1.13-0.12,1.43-0.17c0.3-0.05,1.34-0.35,1.81-0.37c0.46-0.02,1.21,0.06,1.36,0.05
			s0.67-0.21,0.77-0.19c0.1,0.02,0.61,0.29,0.72,0.29c0.11-0.01,0.2-0.16,0.33-0.11s0.43,0.16,0.65,0.21s0.76,0.18,0.89,0.17
			c0.13,0,0.72-0.15,0.84-0.12s0.19,0.34,0.31,0.37s1.7,0.37,2.17,0.36c0.47-0.01,3.51,0.29,3.51,0.29s-1.69,0.84-2.79,0.93
			c-1.1,0.1-3.21-1.01-3.82-1.2c-0.61-0.18-2.84-0.14-3.89-0.06c-1.05,0.08-2.47,0.58-3.87,0.58c-1.41,0-1.81-0.41-2.5-0.38
			s-2.51,0.53-3.1,0.5s-2.56-0.26-3.42-0.28C43.62,39.55,42.45,39.65,41.69,39.71z"/>
		<path class="st4" d="M38.93,42.69c-0.13-0.13,0.67-1.61,1.74-2.01c0,0,1.06,0.14,1.52,0.09s4.09-0.56,4.56-0.52
			c0.47,0.05,2.02,0.67,2.48,0.74c0.46,0.07,1.67,0.06,1.87,0.03s1.91-0.47,2.45-0.47c0.54,0.01,1.87,0.16,2.16,0.27
			s1.09,0.54,1.43,0.74c0.33,0.2,2.21,1.24,2.49,1.25c0.27,0.01,1.6-0.41,1.95-0.41c0.35,0.01,1.2,0.98,1.18,1.17
			s-0.43,0.62-1.27,0.82c-0.84,0.2-1.41-0.15-1.61-0.24c-0.2-0.1-0.4-0.45-0.65-0.59c-0.25-0.14-1.1-0.56-1.44-0.73
			c-0.35-0.17-1.44-1.17-2.19-1.35c-0.74-0.18-3.21-0.02-3.85,0.05s-2.71,0.18-3.18,0.18c-0.48-0.01-2.42-0.94-3.23-0.88
			s-2.41,0.23-3.1,0.44c-0.69,0.21-1.93,0.57-2.3,0.77S38.93,42.69,38.93,42.69z"/>
		<path class="st4" d="M39,43.44c0,0,0.95-0.67,1.33-0.78c0,0,0.2,0.36,0.46,0.75c0.04,0.06,0.4,0.55,0.85,0.94
			c0.45,0.4,0.94,0.63,1.98,1c1.71,0.6,1.82,0.47,2.44,0.76c1.02,0.49,1.47,1.24,2.18,2.2c0.24,0.32,1.3,1.48,3.42,3.79
			c1.33,1.45,3.13,3.42,5.89,5.02c2.08,1.2,4.77,2.76,6.14,2.93c0,0,0.89,0.21,1.14,0.51c0.07,0.08,0.06,0.35-0.19,0.35
			c-0.25,0-2.42-0.74-2.42-0.74s-0.26,2.38-0.19,3.39c0.07,1.06,0.19,2.55,0.23,2.9c0.05,0.45,0.15,1.41,0.1,2.65
			c-0.04,1.17-0.13,1.44-0.33,1.53c-0.35,0.16-0.95-0.24-1.19-0.72c-0.06-0.13-0.25-0.51-0.06-0.77c0.16-0.21,0.52-0.27,0.87-0.12
			c0.07-1,0.07-1.84,0.05-2.46c0,0-0.08-2.65-0.72-5.44c-0.04-0.17-0.32-1.4-0.32-1.4l0,0c0,0-1.23-0.47-1.82-0.8
			c-0.58-0.32-1.77-1-1.77-1c-0.03,0.1-0.07,0.26-0.1,0.46c-0.15,0.88,0,1.58,0.06,1.9c0.47,2.36,0.16,2.91,0.82,4.65
			c0.01,0.03,0.19,0.45,0.54,1.29c0.39,0.93,0.7,1.68,0.91,2.16c-0.15-0.15-0.35-0.36-0.58-0.64c-0.3-0.37-0.78-0.95-1.14-1.77
			c0,0-0.4-1.02-0.4-1.02s-0.38-0.16-0.56-0.51c-0.18-0.35,0.08-0.63,0.32-0.64l-0.29-1.72c0,0-0.36-0.09-0.49-0.35
			s0.35-0.38,0.35-0.38s-0.46-1.97-0.5-2.48c-0.04-0.5,0.08-1.6,0.08-1.6s-2.55-1.95-3.86-3.13c-1.3-1.17-4.52-4.48-4.99-5.1
			c-0.48-0.62-1.4-1.6-1.7-1.81s-0.68-0.48-1.12-0.56c-0.44-0.08-2.23-0.24-3.06-0.69C40.53,45.56,39.43,44.12,39,43.44z"/>
		<path class="st4" d="M41.71,42.05c0,0,1.53-0.47,1.86-0.48c0,0,0.29,0.59,0.73,0.67c0.83,0.2,2.5,0.62,2.87,0.91
			c0.63,0.49,3.04,3.46,3.69,4.24c0.65,0.77,2.97,3.69,3.65,4.31c0.68,0.62,3.34,3.13,4.74,4.17s3.47,2.35,4.01,2.6
			c0.54,0.25,1.21,0.71,1.39,0.82c0.18,0.1,0.2,0.47-0.11,0.45c-0.31-0.02-2.86-1.42-3.71-1.94c-0.86-0.52-3.63-2.46-4.58-3.24
			c-0.94-0.78-2.51-2.44-3.44-3.37c-1.48-1.47-1.48-1.85-3.65-4.35c-2.35-2.72-2.8-2.97-3.34-3.11c-0.96-0.25-1.95-0.08-3.16-0.84
			C42.23,42.6,41.91,42.28,41.71,42.05z"/>
		<path class="st4" d="M48.32,42.35c0,0,2-0.26,2.46-0.04c0,0,2.14,3.72,2.47,4.17c0.34,0.45,1.97,2.29,2.4,2.96
			c0.43,0.66,2.61,2.89,3.71,3.83c1.1,0.93,2.85,2.36,3.31,2.58c0.46,0.22,1.41,0.87,1.57,0.94c0.17,0.07,0.13,0.45-0.32,0.33
			c-0.45-0.12-4.15-2.53-4.56-2.83c-0.41-0.3-3.52-3.25-3.85-3.57c-0.76-0.73-2.81-3.32-3.12-3.8
			C52.09,46.44,49.03,43.25,48.32,42.35z"/>
		<path class="st4" d="M52.15,42.19c0,0,1.64-0.21,1.94-0.08c0,0,1.06,1.87,1.8,3.26c0.73,1.39,1.34,2.94,2.24,3.86
			c0.91,0.91,3.26,2.27,3.63,2.64s1.18,1.13,1.33,1.29s0.54,0.83,0.63,0.99c0.09,0.15-0.22,0.34-0.99-0.25
			c-0.78-0.59-3.5-2.56-3.79-2.76s-1.74-1.67-2.18-2.24s-1.42-1.96-1.77-2.44c-0.35-0.48-1.51-2.59-1.79-3.06
			S52.15,42.19,52.15,42.19z"/>
		<path class="st4" d="M55.68,42.3c0,0,0.85,0.46,1.13,0.68c0.28,0.22,1.11,0.47,1.11,0.47s0.86,2.02,1.19,2.57
			c0.33,0.55,1.19,1.35,1.39,1.58c0.19,0.23,1.71,1.74,1.87,1.91c0.16,0.17-0.21,0.3-0.52,0.17c-0.31-0.12-2.25-1.29-2.61-1.5
			c-0.36-0.21-1.65-2.28-1.99-2.91C56.92,44.66,55.68,42.3,55.68,42.3z"/>
		<path class="st4" d="M61.17,45.08c0,0,1.36-0.23,1.72-0.58c0.37-0.35,0.66-1.39,0.58-1.69c0,0,0.53,0.61,0.67,0.91
			c0.14,0.3,0.44,1.31,0.64,1.68s0.74,1.06,0.86,1.53c0.12,0.47,0.14,2.05,0.13,2.72c-0.02,0.67-0.23,2.14,0.07,4.19
			c0.31,2.06,0.54,3.55,0.79,4.42c0,0,0.7,0.39,0.78,0.65c0.09,0.25-0.36,0.67-0.36,0.67s0.61,1.71,1.19,2.81
			c0.57,1.1,2.16,3.13,2.16,3.13s1.33,0.34,1.39,0.58c0.06,0.24,0.1,0.53-0.13,0.77c0,0,1.84,2.13,2.43,2.56
			c0.59,0.43,1.4,1.04,1.4,1.04s-1.88-0.24-2.11-0.38c-0.23-0.14-0.39-0.44-0.29-0.57s-0.08-0.36-0.18-0.48
			c-0.1-0.13-0.72-0.71-1.16-1.05c-0.44-0.34-1.23-1.2-1.23-1.2s-0.56,0.61-0.69,0.64c-0.13,0.02-0.5-0.52-0.58-0.7
			c-0.08-0.18-0.13-1.29-0.13-1.29s-0.94-1.12-1.29-1.67c0,0-0.61,0-0.88-0.17c-0.28-0.17-0.32-0.94-0.21-1.16
			c0.11-0.22,0.24-0.36,0.24-0.36s-1.42-3.93-1.71-4.74c-0.29-0.81-0.82-2.33-1.02-3.51c-0.2-1.19-0.09-3.64-0.03-4.41
			c0.07-0.77-0.03-1.34-0.29-1.82c-0.26-0.48-0.88-1.36-1.36-1.78C62.1,45.39,61.17,45.08,61.17,45.08z"/>
		<path class="st4" d="M66.05,46.27c0.56,0.41,1.34,0.99,2.27,1.7c2.47,1.89,2.8,2.24,3.1,2.67c0.81,1.15,1.04,2.27,1.29,3.45
			c0.32,1.55,0.3,2.86,0.22,3.74c-0.8-1.03-1.33-1.98-1.67-2.72c-1.16-2.45-0.7-3.29-1.91-4.77c-1.31-1.6-2.02-2.21-2.02-2.21
			c-0.15-0.13-0.58-0.48-0.93-1.09C66.21,46.75,66.11,46.46,66.05,46.27z"/>
		<path class="st4" d="M70.87,47.32c2.44,1.23,2.54,2.61,4.79,3.52c0.79,0.32,1.45,0.43,2.34,0.57c0.84,0.13,2.27,0.36,3.79,0.09
			c1.86-0.33,1.89-1.04,3.57-1.5c2.7-0.73,5.18,0.39,5.49,0.59c1.44,0.91,3.15,2.57,4.04,3.95c0.89,1.38,2.27,3.13,2.27,3.13
			c-0.04-0.63-0.15-1.51-0.45-2.51c-0.14-0.48-0.61-1.94-1.89-3.74c-1.54-2.15-2.18-1.96-3.96-4.25c-0.46-0.59-1.19-2.03-1.89-2.75
			c-0.71-0.72-2.27-2-3.71-2.61c-1.44-0.61-6.68-1.67-8.22-2.03c-1.54-0.36-4.46-0.19-5.17-0.31c-0.31-0.06-1.27,0.45-2.41,0.18
			c-0.37-0.09-0.66-0.22-0.86-0.32c0,0,2.45-0.84,3.92-0.95c1.46-0.11,7.08,0.1,7.63,0.22c0.55,0.12,5.45,1.21,6.15,1.48
			c0.7,0.27,1.7,0.73,1.7,0.73s3.09,0.58,3.98,0.86c0.88,0.27,3.22,1.31,3.54,1.51s0.86,0.87,0.86,0.87s-2.56,0.78-3.76,0.75
			c0,0-0.14-0.36-0.65-0.79c-0.51-0.44-1.62-1.28-2.4-1.42c0,0,0.37,1.4,0.87,1.94c0.51,0.54,2.04,1.56,2.5,1.65
			c0.46,0.09,1.57-0.26,1.57-0.26s1.75,2.01,2.14,2.57c0,0,1.14,0.39,1.41,0.58c0.27,0.19,0.59,0.55,0.46,0.84
			c-0.13,0.29-0.31,0.35-0.31,0.35s0.37,0.56,0.48,0.87c0,0,1.15,0.59,1.25,0.9c0.1,0.31,0.01,0.99-0.24,1.22
			c0,0,0.33,0.56,0.36,0.83c0,0,1.09,0.28,1.17,0.66c0.09,0.38-0.1,0.78-0.33,1c0,0,0.26,0.89,0.25,1.28c0,0,0.43-0.1,0.57,0.05
			c0.13,0.16-0.13,1.14-0.48,1.54c0,0-0.24,2.59-0.45,3.96c-0.21,1.37-1.18,4.95-1.18,4.95s0.27-4.02,0.32-5.4
			c0.05-1.37-0.12-4.05-0.29-5.15c-0.17-1.1-1.33-4.26-1.92-5.48c-0.59-1.22-1.61-2.62-1.61-2.62s1.59,3.96,1.94,5.47
			c0.34,1.51,0.97,5.19,1.01,7c0.05,2.1,0.11,3.53-0.39,5.38c-0.59,2.19-1.72,4.17-1.95,4.09c-0.11-0.04-0.06-0.56,0.08-1.35
			c0.14-0.81,0.21-1.21,0.31-1.58c0.27-1,0.61-3.23,0.44-5.36c-0.11-1.43-0.25-3.27-1.49-5.05c-0.68-0.97-1.39-1.5-2.32-2.2l0,0
			c-0.66-0.6-2.43-2.19-5.03-2.55c-0.98-0.14-1.75-0.05-2.05-0.02c-1.04,0.14-1.79,0.46-2.09,0.59c-1.38,0.6-4.17,1.46-6.32,1.65
			c-2.14,0.19-4.43-0.76-4.43-0.76c-0.06-0.59-0.2-1.47-0.62-2.46c-0.73-1.73-1.86-2.79-2.4-3.29c-1.37-1.25-2.58-1.72-2.51-1.87
			C68.36,46.41,69.6,46.68,70.87,47.32z"/>
		<path class="st4" d="M73.44,60.04c0,0,2.15,4.65,2.81,5.68s2.65,4.83,2.8,5.28c0.15,0.45,0.05,1.08-0.46,1.15
			c-0.51,0.08-1.38-0.29-1.65-0.92s0.37-1.22,0.37-1.22s-1.46-3.14-2.07-4.4s-1.7-4.58-1.84-4.91
			C73.27,60.37,73.27,59.67,73.44,60.04z"/>
		<path class="st4" d="M74.05,59.33c0,0,1.61,1.01,1.68,1.2c0.08,0.19,2.07,0.29,3.33,0.16c1.67-0.18,2.89-0.44,3.68-0.64
			c0.97-0.24,1.55-0.39,2.3-0.74c1.14-0.53,1.21-0.85,2.07-1.3c0.35-0.18,2.24-1.13,4.44-0.56c0.49,0.13,1.73,0.45,2.62,1.53
			c0.35,0.42,0.73,1.06,1.17,4.42c0.16,1.24,0.26,2.28,0.32,3.02c0.14-1.37,0.19-2.5,0.21-3.3c0.08-3.1-0.23-3.98-0.45-4.47
			c-0.24-0.54-0.64-1.41-1.57-2.03c-0.83-0.54-1.65-0.6-2.32-0.64c-0.92-0.05-2.22,0.04-4.07,0.83c-0.39,0.17-0.97,0.41-1.65,0.87
			c-0.6,0.41-0.75,0.63-1.25,0.98c-0.78,0.54-1.51,0.75-2.01,0.9c-1.09,0.32-2.04,0.32-3.97,0.19
			C77.36,59.67,75.83,59.55,74.05,59.33z"/>
		<path class="st4" d="M95.39,67.05c-0.17,0.61-0.6,1.79-1.71,2.66c-0.47,0.37-0.94,0.59-1.47,0.78c-2.03,0.73-3.39,0.42-4.81,0.57
			c-2.68,0.29-4.58,2.13-5.79,3.3c-1.79,1.73-3.37,4.27-3.37,4.27l0,0c0,0,0.72-3.84,2.19-5.32c1.47-1.47,3.25-2.96,6.63-3.47
			s4.07,0.12,5.59-0.68C94.16,68.38,95.39,67.05,95.39,67.05z"/>
		<path class="st4" d="M80.4,76.77c0.44-0.4,1.19-0.96,2.24-1.23c1.84-0.47,3.49,0.26,3.95,0.46c1.74,0.79,2.24,1.94,3.73,1.9
			c0.39-0.01,0.71-0.1,1.02-0.18c1.17-0.32,1.99-0.94,2.46-1.36c-0.07,0.24-0.58,1.79-2.12,2.39c-0.22,0.09-0.96,0.37-1.84,0.17
			c-1.07-0.24-1.04-0.88-2.53-1.69c-1-0.55-1.93-0.75-2.33-0.84c-0.29-0.06-0.82-0.17-1.49-0.19C82.83,76.19,81.73,76.24,80.4,76.77
			z"/>
		<path class="st4" d="M94.98,75.86c-1.69,2.04-1.79,3.21-1.55,3.9c0.09,0.25,0.22,0.43,0.78,1.68c0.37,0.82,0.55,1.23,0.61,1.42
			c0.4,1.28,0.19,2.43,0.09,2.98c-0.19,1-0.55,1.69-0.8,2.17c-0.35,0.67-0.99,1.69-2.11,2.69c0.84-0.2,2.42-0.71,3.4-2.14
			c1.31-1.91,0.78-4.32,0.57-5.29c-0.44-1.98-1.24-2.41-1.4-4.3C94.46,77.67,94.74,76.57,94.98,75.86z"/>
		<path class="st4" d="M98.82,69.54c0,0-0.8,2.01-1.17,2.59c-0.37,0.58-1.69,2.81-1.69,2.81s0.66-0.55,0.89-0.3
			c0.24,0.25,0.92,2.29,0.89,3.81s-0.15,4.75-0.21,5.07c-0.05,0.32,0.12,0.93,0.38,0.18c0.26-0.75,1.05-4.84,1.12-6.78
			c0.07-1.94-0.17-3.26-0.08-3.95s0.29-1.88,0.22-2.32C99.12,70.2,98.82,69.54,98.82,69.54z"/>
	</g>
	<g>
		<path class="st5" d="M41.69,39.71c0,0,2.16-1.48,3.95-1.77c1.78-0.28,3.83,0.31,4.42,0.34c0.59,0.04,1.37-0.04,1.65,0.02
			c0.28,0.06,0.85,0.44,1.38,0.37c0.52-0.07,1.13-0.12,1.43-0.17c0.3-0.05,1.34-0.35,1.81-0.37c0.46-0.02,1.21,0.06,1.36,0.05
			s0.67-0.21,0.77-0.19c0.1,0.02,0.61,0.29,0.72,0.29c0.11-0.01,0.2-0.16,0.33-0.11s0.43,0.16,0.65,0.21s0.76,0.18,0.89,0.17
			c0.13,0,0.72-0.15,0.84-0.12s0.19,0.34,0.31,0.37s1.7,0.37,2.17,0.36c0.47-0.01,3.51,0.29,3.51,0.29s-1.69,0.84-2.79,0.93
			c-1.1,0.1-3.21-1.01-3.82-1.2c-0.61-0.18-2.84-0.14-3.89-0.06c-1.05,0.08-2.47,0.58-3.87,0.58c-1.41,0-1.81-0.41-2.5-0.38
			s-2.51,0.53-3.1,0.5s-2.56-0.26-3.42-0.28C43.62,39.55,42.45,39.65,41.69,39.71z"/>
		<path class="st5" d="M38.93,42.69c-0.13-0.13,0.67-1.61,1.74-2.01c0,0,1.06,0.14,1.52,0.09s4.09-0.56,4.56-0.52
			c0.47,0.05,2.02,0.67,2.48,0.74c0.46,0.07,1.67,0.06,1.87,0.03s1.91-0.47,2.45-0.47c0.54,0.01,1.87,0.16,2.16,0.27
			s1.09,0.54,1.43,0.74c0.33,0.2,2.21,1.24,2.49,1.25c0.27,0.01,1.6-0.41,1.95-0.41c0.35,0.01,1.2,0.98,1.18,1.17
			s-0.43,0.62-1.27,0.82c-0.84,0.2-1.41-0.15-1.61-0.24c-0.2-0.1-0.4-0.45-0.65-0.59c-0.25-0.14-1.1-0.56-1.44-0.73
			c-0.35-0.17-1.44-1.17-2.19-1.35c-0.74-0.18-3.21-0.02-3.85,0.05s-2.71,0.18-3.18,0.18c-0.48-0.01-2.42-0.94-3.23-0.88
			s-2.41,0.23-3.1,0.44c-0.69,0.21-1.93,0.57-2.3,0.77S38.93,42.69,38.93,42.69z"/>
		<path class="st5" d="M39,43.44c0,0,0.95-0.67,1.33-0.78c0,0,0.2,0.36,0.46,0.75c0.04,0.06,0.4,0.55,0.85,0.94
			c0.45,0.4,0.94,0.63,1.98,1c1.71,0.6,1.82,0.47,2.44,0.76c1.02,0.49,1.47,1.24,2.18,2.2c0.24,0.32,1.3,1.48,3.42,3.79
			c1.33,1.45,3.13,3.42,5.89,5.02c2.08,1.2,4.77,2.76,6.14,2.93c0,0,0.89,0.21,1.14,0.51c0.07,0.08,0.06,0.35-0.19,0.35
			c-0.25,0-2.42-0.74-2.42-0.74s-0.26,2.38-0.19,3.39c0.07,1.06,0.19,2.55,0.23,2.9c0.05,0.45,0.15,1.41,0.1,2.65
			c-0.04,1.17-0.13,1.44-0.33,1.53c-0.35,0.16-0.95-0.24-1.19-0.72c-0.06-0.13-0.25-0.51-0.06-0.77c0.16-0.21,0.52-0.27,0.87-0.12
			c0.07-1,0.07-1.84,0.05-2.46c0,0-0.08-2.65-0.72-5.44c-0.04-0.17-0.32-1.4-0.32-1.4l0,0c0,0-1.23-0.47-1.82-0.8
			c-0.58-0.32-1.77-1-1.77-1c-0.03,0.1-0.07,0.26-0.1,0.46c-0.15,0.88,0,1.58,0.06,1.9c0.47,2.36,0.16,2.91,0.82,4.65
			c0.01,0.03,0.19,0.45,0.54,1.29c0.39,0.93,0.7,1.68,0.91,2.16c-0.15-0.15-0.35-0.36-0.58-0.64c-0.3-0.37-0.78-0.95-1.14-1.77
			c0,0-0.4-1.02-0.4-1.02s-0.38-0.16-0.56-0.51c-0.18-0.35,0.08-0.63,0.32-0.64l-0.29-1.72c0,0-0.36-0.09-0.49-0.35
			s0.35-0.38,0.35-0.38s-0.46-1.97-0.5-2.48c-0.04-0.5,0.08-1.6,0.08-1.6s-2.55-1.95-3.86-3.13c-1.3-1.17-4.52-4.48-4.99-5.1
			c-0.48-0.62-1.4-1.6-1.7-1.81s-0.68-0.48-1.12-0.56c-0.44-0.08-2.23-0.24-3.06-0.69C40.53,45.56,39.43,44.12,39,43.44z"/>
		<path class="st5" d="M41.71,42.05c0,0,1.53-0.47,1.86-0.48c0,0,0.29,0.59,0.73,0.67c0.83,0.2,2.5,0.62,2.87,0.91
			c0.63,0.49,3.04,3.46,3.69,4.24c0.65,0.77,2.97,3.69,3.65,4.31c0.68,0.62,3.34,3.13,4.74,4.17s3.47,2.35,4.01,2.6
			c0.54,0.25,1.21,0.71,1.39,0.82c0.18,0.1,0.2,0.47-0.11,0.45c-0.31-0.02-2.86-1.42-3.71-1.94c-0.86-0.52-3.63-2.46-4.58-3.24
			c-0.94-0.78-2.51-2.44-3.44-3.37c-1.48-1.47-1.48-1.85-3.65-4.35c-2.35-2.72-2.8-2.97-3.34-3.11c-0.96-0.25-1.95-0.08-3.16-0.84
			C42.23,42.6,41.91,42.28,41.71,42.05z"/>
		<path class="st5" d="M48.32,42.35c0,0,2-0.26,2.46-0.04c0,0,2.14,3.72,2.47,4.17c0.34,0.45,1.97,2.29,2.4,2.96
			c0.43,0.66,2.61,2.89,3.71,3.83c1.1,0.93,2.85,2.36,3.31,2.58c0.46,0.22,1.41,0.87,1.57,0.94c0.17,0.07,0.13,0.45-0.32,0.33
			c-0.45-0.12-4.15-2.53-4.56-2.83c-0.41-0.3-3.52-3.25-3.85-3.57c-0.76-0.73-2.81-3.32-3.12-3.8
			C52.09,46.44,49.03,43.25,48.32,42.35z"/>
		<path class="st5" d="M52.15,42.19c0,0,1.64-0.21,1.94-0.08c0,0,1.06,1.87,1.8,3.26c0.73,1.39,1.34,2.94,2.24,3.86
			c0.91,0.91,3.26,2.27,3.63,2.64s1.18,1.13,1.33,1.29s0.54,0.83,0.63,0.99c0.09,0.15-0.22,0.34-0.99-0.25
			c-0.78-0.59-3.5-2.56-3.79-2.76s-1.74-1.67-2.18-2.24s-1.42-1.96-1.77-2.44c-0.35-0.48-1.51-2.59-1.79-3.06
			S52.15,42.19,52.15,42.19z"/>
		<path class="st5" d="M55.68,42.3c0,0,0.85,0.46,1.13,0.68c0.28,0.22,1.11,0.47,1.11,0.47s0.86,2.02,1.19,2.57
			c0.33,0.55,1.19,1.35,1.39,1.58c0.19,0.23,1.71,1.74,1.87,1.91c0.16,0.17-0.21,0.3-0.52,0.17c-0.31-0.12-2.25-1.29-2.61-1.5
			c-0.36-0.21-1.65-2.28-1.99-2.91C56.92,44.66,55.68,42.3,55.68,42.3z"/>
		<path class="st5" d="M61.17,45.08c0,0,1.36-0.23,1.72-0.58c0.37-0.35,0.66-1.39,0.58-1.69c0,0,0.53,0.61,0.67,0.91
			c0.14,0.3,0.44,1.31,0.64,1.68s0.74,1.06,0.86,1.53c0.12,0.47,0.14,2.05,0.13,2.72c-0.02,0.67-0.23,2.14,0.07,4.19
			c0.31,2.06,0.54,3.55,0.79,4.42c0,0,0.7,0.39,0.78,0.65c0.09,0.25-0.36,0.67-0.36,0.67s0.61,1.71,1.19,2.81
			c0.57,1.1,2.16,3.13,2.16,3.13s1.33,0.34,1.39,0.58c0.06,0.24,0.1,0.53-0.13,0.77c0,0,1.84,2.13,2.43,2.56
			c0.59,0.43,1.4,1.04,1.4,1.04s-1.88-0.24-2.11-0.38c-0.23-0.14-0.39-0.44-0.29-0.57s-0.08-0.36-0.18-0.48
			c-0.1-0.13-0.72-0.71-1.16-1.05c-0.44-0.34-1.23-1.2-1.23-1.2s-0.56,0.61-0.69,0.64c-0.13,0.02-0.5-0.52-0.58-0.7
			c-0.08-0.18-0.13-1.29-0.13-1.29s-0.94-1.12-1.29-1.67c0,0-0.61,0-0.88-0.17c-0.28-0.17-0.32-0.94-0.21-1.16
			c0.11-0.22,0.24-0.36,0.24-0.36s-1.42-3.93-1.71-4.74c-0.29-0.81-0.82-2.33-1.02-3.51c-0.2-1.19-0.09-3.64-0.03-4.41
			c0.07-0.77-0.03-1.34-0.29-1.82c-0.26-0.48-0.88-1.36-1.36-1.78C62.1,45.39,61.17,45.08,61.17,45.08z"/>
		<path class="st5" d="M66.05,46.27c0.56,0.41,1.34,0.99,2.27,1.7c2.47,1.89,2.8,2.24,3.1,2.67c0.81,1.15,1.04,2.27,1.29,3.45
			c0.32,1.55,0.3,2.86,0.22,3.74c-0.8-1.03-1.33-1.98-1.67-2.72c-1.16-2.45-0.7-3.29-1.91-4.77c-1.31-1.6-2.02-2.21-2.02-2.21
			c-0.15-0.13-0.58-0.48-0.93-1.09C66.21,46.75,66.11,46.46,66.05,46.27z"/>
		<path class="st5" d="M70.87,47.32c2.44,1.23,2.54,2.61,4.79,3.52c0.79,0.32,1.45,0.43,2.34,0.57c0.84,0.13,2.27,0.36,3.79,0.09
			c1.86-0.33,1.89-1.04,3.57-1.5c2.7-0.73,5.18,0.39,5.49,0.59c1.44,0.91,3.15,2.57,4.04,3.95c0.89,1.38,2.27,3.13,2.27,3.13
			c-0.04-0.63-0.15-1.51-0.45-2.51c-0.14-0.48-0.61-1.94-1.89-3.74c-1.54-2.15-2.18-1.96-3.96-4.25c-0.46-0.59-1.19-2.03-1.89-2.75
			c-0.71-0.72-2.27-2-3.71-2.61c-1.44-0.61-6.68-1.67-8.22-2.03c-1.54-0.36-4.46-0.19-5.17-0.31c-0.31-0.06-1.27,0.45-2.41,0.18
			c-0.37-0.09-0.66-0.22-0.86-0.32c0,0,2.45-0.84,3.92-0.95c1.46-0.11,7.08,0.1,7.63,0.22c0.55,0.12,5.45,1.21,6.15,1.48
			c0.7,0.27,1.7,0.73,1.7,0.73s3.09,0.58,3.98,0.86c0.88,0.27,3.22,1.31,3.54,1.51s0.86,0.87,0.86,0.87s-2.56,0.78-3.76,0.75
			c0,0-0.14-0.36-0.65-0.79c-0.51-0.44-1.62-1.28-2.4-1.42c0,0,0.37,1.4,0.87,1.94c0.51,0.54,2.04,1.56,2.5,1.65
			c0.46,0.09,1.57-0.26,1.57-0.26s1.75,2.01,2.14,2.57c0,0,1.14,0.39,1.41,0.58c0.27,0.19,0.59,0.55,0.46,0.84
			c-0.13,0.29-0.31,0.35-0.31,0.35s0.37,0.56,0.48,0.87c0,0,1.15,0.59,1.25,0.9c0.1,0.31,0.01,0.99-0.24,1.22
			c0,0,0.33,0.56,0.36,0.83c0,0,1.09,0.28,1.17,0.66c0.09,0.38-0.1,0.78-0.33,1c0,0,0.26,0.89,0.25,1.28c0,0,0.43-0.1,0.57,0.05
			c0.13,0.16-0.13,1.14-0.48,1.54c0,0-0.24,2.59-0.45,3.96c-0.21,1.37-1.18,4.95-1.18,4.95s0.27-4.02,0.32-5.4
			c0.05-1.37-0.12-4.05-0.29-5.15c-0.17-1.1-1.33-4.26-1.92-5.48c-0.59-1.22-1.61-2.62-1.61-2.62s1.59,3.96,1.94,5.47
			c0.34,1.51,0.97,5.19,1.01,7c0.05,2.1,0.11,3.53-0.39,5.38c-0.59,2.19-1.72,4.17-1.95,4.09c-0.11-0.04-0.06-0.56,0.08-1.35
			c0.14-0.81,0.21-1.21,0.31-1.58c0.27-1,0.61-3.23,0.44-5.36c-0.11-1.43-0.25-3.27-1.49-5.05c-0.68-0.97-1.39-1.5-2.32-2.2l0,0
			c-0.66-0.6-2.43-2.19-5.03-2.55c-0.98-0.14-1.75-0.05-2.05-0.02c-1.04,0.14-1.79,0.46-2.09,0.59c-1.38,0.6-4.17,1.46-6.32,1.65
			c-2.14,0.19-4.43-0.76-4.43-0.76c-0.06-0.59-0.2-1.47-0.62-2.46c-0.73-1.73-1.86-2.79-2.4-3.29c-1.37-1.25-2.58-1.72-2.51-1.87
			C68.36,46.41,69.6,46.68,70.87,47.32z"/>
		<path class="st5" d="M73.44,60.04c0,0,2.15,4.65,2.81,5.68s2.65,4.83,2.8,5.28c0.15,0.45,0.05,1.08-0.46,1.15
			c-0.51,0.08-1.38-0.29-1.65-0.92s0.37-1.22,0.37-1.22s-1.46-3.14-2.07-4.4s-1.7-4.58-1.84-4.91
			C73.27,60.37,73.27,59.67,73.44,60.04z"/>
		<path class="st5" d="M74.05,59.33c0,0,1.61,1.01,1.68,1.2c0.08,0.19,2.07,0.29,3.33,0.16c1.67-0.18,2.89-0.44,3.68-0.64
			c0.97-0.24,1.55-0.39,2.3-0.74c1.14-0.53,1.21-0.85,2.07-1.3c0.35-0.18,2.24-1.13,4.44-0.56c0.49,0.13,1.73,0.45,2.62,1.53
			c0.35,0.42,0.73,1.06,1.17,4.42c0.16,1.24,0.26,2.28,0.32,3.02c0.14-1.37,0.19-2.5,0.21-3.3c0.08-3.1-0.23-3.98-0.45-4.47
			c-0.24-0.54-0.64-1.41-1.57-2.03c-0.83-0.54-1.65-0.6-2.32-0.64c-0.92-0.05-2.22,0.04-4.07,0.83c-0.39,0.17-0.97,0.41-1.65,0.87
			c-0.6,0.41-0.75,0.63-1.25,0.98c-0.78,0.54-1.51,0.75-2.01,0.9c-1.09,0.32-2.04,0.32-3.97,0.19
			C77.36,59.67,75.83,59.55,74.05,59.33z"/>
		<path class="st5" d="M95.39,67.05c-0.17,0.61-0.6,1.79-1.71,2.66c-0.47,0.37-0.94,0.59-1.47,0.78c-2.03,0.73-3.39,0.42-4.81,0.57
			c-2.68,0.29-4.58,2.13-5.79,3.3c-1.79,1.73-3.37,4.27-3.37,4.27l0,0c0,0,0.72-3.84,2.19-5.32c1.47-1.47,3.25-2.96,6.63-3.47
			s4.07,0.12,5.59-0.68C94.16,68.38,95.39,67.05,95.39,67.05z"/>
		<path class="st5" d="M80.4,76.77c0.44-0.4,1.19-0.96,2.24-1.23c1.84-0.47,3.49,0.26,3.95,0.46c1.74,0.79,2.24,1.94,3.73,1.9
			c0.39-0.01,0.71-0.1,1.02-0.18c1.17-0.32,1.99-0.94,2.46-1.36c-0.07,0.24-0.58,1.79-2.12,2.39c-0.22,0.09-0.96,0.37-1.84,0.17
			c-1.07-0.24-1.04-0.88-2.53-1.69c-1-0.55-1.93-0.75-2.33-0.84c-0.29-0.06-0.82-0.17-1.49-0.19C82.83,76.19,81.73,76.24,80.4,76.77
			z"/>
		<path class="st5" d="M94.98,75.86c-1.69,2.04-1.79,3.21-1.55,3.9c0.09,0.25,0.22,0.43,0.78,1.68c0.37,0.82,0.55,1.23,0.61,1.42
			c0.4,1.28,0.19,2.43,0.09,2.98c-0.19,1-0.55,1.69-0.8,2.17c-0.35,0.67-0.99,1.69-2.11,2.69c0.84-0.2,2.42-0.71,3.4-2.14
			c1.31-1.91,0.78-4.32,0.57-5.29c-0.44-1.98-1.24-2.41-1.4-4.3C94.46,77.67,94.74,76.57,94.98,75.86z"/>
		<path class="st5" d="M98.82,69.54c0,0-0.8,2.01-1.17,2.59c-0.37,0.58-1.69,2.81-1.69,2.81s0.66-0.55,0.89-0.3
			c0.24,0.25,0.92,2.29,0.89,3.81s-0.15,4.75-0.21,5.07c-0.05,0.32,0.12,0.93,0.38,0.18c0.26-0.75,1.05-4.84,1.12-6.78
			c0.07-1.94-0.17-3.26-0.08-3.95s0.29-1.88,0.22-2.32C99.12,70.2,98.82,69.54,98.82,69.54z"/>
	</g>
</g>
</svg>
