<?xml version="1.0" encoding="utf-8"?>
<!-- Generator: Adobe Illustrator 24.2.1, SVG Export Plug-In . SVG Version: 6.00 Build 0)  -->
<svg version="1.1" id="レイヤー_1" xmlns="http://www.w3.org/2000/svg" xmlns:xlink="http://www.w3.org/1999/xlink" preserveAspectRatio="none" x="0px"
	 y="0px" viewBox="70 60 320 70" style="enable-background:new 0 0 448.57 179.86;" xml:space="preserve">
<style type="text/css">
	.st0{fill:none;stroke:#FFFFFF;}
	.st1{fill:#4D4D4D;}
</style>
<g>
	<g>
		<path class="st0" d="M359.98,107.45c-0.54,0-1.08-0.02-1.63-0.06c-5.99-0.43-11.46-3.17-15.4-7.72
			c-3.93-4.54-5.86-10.35-5.43-16.34c0.43-5.99,3.17-11.46,7.72-15.4c4.54-3.93,10.34-5.87,16.34-5.43
			c5.99,0.43,11.46,3.17,15.4,7.71c3.93,4.54,5.86,10.35,5.43,16.34C381.55,98.39,371.65,107.45,359.98,107.45z M359.93,63.45
			c-5.16,0-10.1,1.83-14.04,5.25c-4.34,3.76-6.96,8.98-7.37,14.71c-0.41,5.73,1.43,11.27,5.19,15.62c3.76,4.34,8.98,6.96,14.71,7.37
			c11.82,0.85,22.14-8.08,22.99-19.9c0.41-5.73-1.43-11.27-5.19-15.62s-8.98-6.96-14.71-7.37l0,0
			C360.98,63.47,360.45,63.45,359.93,63.45z"/>
		<polygon class="st0" points="338.02,83.37 380.55,91.44 381.27,81.47 		"/>
		<g>
			<path class="st0" d="M335.16,85.91l-7.23-0.52l5.52-4.56l-4.7-0.34l0.07-1.02l7.18,0.52l-5.5,4.56l4.74,0.34L335.16,85.91z"/>
		</g>
	</g>
	<g>
		<path class="st1" d="M359.98,107.45c-0.54,0-1.08-0.02-1.63-0.06c-5.99-0.43-11.46-3.17-15.4-7.72
			c-3.93-4.54-5.86-10.35-5.43-16.34c0.43-5.99,3.17-11.46,7.72-15.4c4.54-3.93,10.34-5.87,16.34-5.43
			c5.99,0.43,11.46,3.17,15.4,7.71c3.93,4.54,5.86,10.35,5.43,16.34C381.55,98.39,371.65,107.45,359.98,107.45z M359.93,63.45
			c-5.16,0-10.1,1.83-14.04,5.25c-4.34,3.76-6.96,8.98-7.37,14.71c-0.41,5.73,1.43,11.27,5.19,15.62c3.76,4.34,8.98,6.96,14.71,7.37
			c11.82,0.85,22.14-8.08,22.99-19.9c0.41-5.73-1.43-11.27-5.19-15.62s-8.98-6.96-14.71-7.37l0,0
			C360.98,63.47,360.45,63.45,359.93,63.45z"/>
		<polygon class="st1" points="338.02,83.37 380.55,91.44 381.27,81.47 		"/>
		<g>
			<path class="st1" d="M335.16,85.91l-7.23-0.52l5.52-4.56l-4.7-0.34l0.07-1.02l7.18,0.52l-5.5,4.56l4.74,0.34L335.16,85.91z"/>
		</g>
	</g>
</g>
<g>
	<g>
		<path class="st0" d="M84.18,101.86c-0.41,0-0.45-0.04-0.45-0.41c0-0.7,0.2-8.41,0.29-17.88c-0.94,3.2-2.25,6.11-3.94,8.69
			c-0.29,0.41-0.45,0.66-0.61,0.66s-0.29-0.21-0.45-0.66c-0.41-1.23-0.94-2.38-1.44-3.03c2.54-3.36,4.84-7.71,6.07-12.87h-0.49
			c-2.83,0-3.73,0.08-3.98,0.08c-0.41,0-0.45-0.04-0.45-0.45v-2.95c0-0.37,0.04-0.41,0.45-0.41c0.25,0,1.15,0.08,3.98,0.08h0.74
			v-2.87c0-2.46-0.04-3.85-0.33-5.49c1.56,0.04,2.75,0.12,3.98,0.29c0.41,0.08,0.66,0.25,0.66,0.45c0,0.33-0.08,0.53-0.25,0.86
			c-0.21,0.45-0.25,1.11-0.25,3.85v2.91c2.79,0,3.65-0.08,3.9-0.08c0.41,0,0.45,0.04,0.45,0.41v2.95c0,0.41-0.04,0.45-0.45,0.45
			c-0.25,0-1.11-0.08-3.77-0.08c0.98,2.91,2.79,5.99,4.59,8.04c-0.53,0.78-1.11,1.68-1.44,2.54c-0.16,0.45-0.29,0.7-0.41,0.7
			c-0.16,0-0.29-0.25-0.57-0.66c-0.9-1.43-1.76-3.28-2.42-5.25c0.04,10.7,0.29,19.02,0.29,19.72c0,0.37-0.04,0.41-0.45,0.41H84.18z
			 M104.68,87.19c-0.86,5.49-2.75,9.88-6.23,13.98c-0.37,0.45-0.57,0.66-0.78,0.66s-0.45-0.29-0.86-0.74
			c-0.7-0.82-1.44-1.43-2.26-1.93c4.84-5,6.68-9.72,6.85-19.93h-4.06c-0.04,4.43-0.57,9.59-1.27,12.59
			c-0.82,3.36-1.89,6.07-3.53,8.77c-0.33,0.53-0.53,0.82-0.74,0.82c-0.25,0-0.49-0.25-0.86-0.66c-0.7-0.78-1.52-1.39-2.38-1.84
			c1.72-2.25,2.91-4.92,3.73-8.49c0.66-2.62,1.15-7.17,1.15-11.97v-3.94c0-3.12-0.08-4.84-0.29-7.05c1.56,0.29,2.58,0.53,4.06,0.98
			c4.47-0.57,7.38-1.35,11.03-2.58c0.94-0.33,1.68-0.7,2.42-1.15c1.15,0.86,2.17,1.76,2.99,2.58c0.25,0.25,0.37,0.49,0.37,0.74
			s-0.2,0.53-0.61,0.53c-0.45,0-1.11,0.16-1.85,0.41c-5.21,1.56-9.14,2.42-14.23,2.99v3.49h12.87c3.57,0,4.76-0.08,5-0.08
			c0.45,0,0.49,0.04,0.49,0.45v2.99c0,0.45-0.04,0.49-0.49,0.49c-0.25,0-1.44-0.08-5-0.08h-4.88c-0.04,1.52-0.12,2.95-0.25,4.31
			h4.88c2.3,0,2.95-0.08,3.2-0.08c0.45,0,0.57,0.08,0.53,0.53c-0.12,1.27-0.16,2.75-0.21,3.69c-0.21,5.29-0.7,8.65-1.56,10.99
			c-0.7,2.05-2.01,2.83-4.14,2.83c-0.78,0-1.48-0.04-2.42-0.12c-1.07-0.08-1.07-0.08-1.23-1.43c-0.12-1.07-0.33-1.97-0.7-2.71
			c1.6,0.29,2.5,0.37,3.28,0.37c1.07,0,1.6-0.21,1.97-1.48c0.49-1.76,0.9-5.29,0.98-8.94H104.68z"/>
		<path class="st0" d="M135.55,78c0,3.73-0.33,8.32-0.94,11.85c-0.66,3.85-1.56,7.13-3.48,10.33c-0.33,0.53-0.49,0.78-0.7,0.78
			c-0.16,0-0.37-0.21-0.74-0.66c-0.86-1.02-1.89-1.93-2.67-2.38c1.97-2.75,2.91-5.99,3.53-9.59c0.57-3.36,0.86-7.63,0.86-13.57
			c0-5.82-0.08-8.41-0.08-8.65c0-0.45,0.04-0.49,0.45-0.49c0.25,0,1.68,0.08,5.66,0.08h18.7c3.94,0,5.41-0.08,5.66-0.08
			c0.41,0,0.45,0.04,0.45,0.49c0,0.25-0.08,0.98-0.08,2.99v3.49c0,1.97,0.08,2.71,0.08,2.95c0,0.45-0.04,0.49-0.45,0.49
			c-0.25,0-1.72-0.08-5.66-0.08h-20.58V78z M157.94,69.31h-22.39v3.12h22.39V69.31z M154.66,83.91c3.69-0.33,5.04-0.66,5.41-0.7
			c0.45-0.04,0.45,0,0.49,0.45l0.25,2.67c0.04,0.41,0,0.45-0.41,0.49c-0.57,0.04-1.8,0.12-5.54,0.49l-5.7,0.53v2.62l7.34-0.74
			c3.77-0.33,5.21-0.57,5.62-0.61c0.41-0.04,0.45,0,0.49,0.41l0.25,2.67c0.04,0.41,0,0.45-0.41,0.49c-0.61,0.04-1.93,0.12-5.7,0.49
			l-7.58,0.7v1.11c0,1.56,0,1.93,0.57,2.38c0.45,0.33,1.84,0.37,4.51,0.37c3.12,0,4.63-0.21,5.33-0.7c0.82-0.66,0.98-1.76,1.07-3.57
			c0.78,0.57,1.76,0.94,2.83,1.23c1.07,0.29,1.07,0.29,0.9,1.35c-0.33,2.58-0.9,3.28-2.17,4.14c-1.27,0.9-3.94,1.23-7.95,1.23
			c-4.1,0-6.68-0.25-7.79-1.03c-0.94-0.66-1.44-1.31-1.44-3.69v-2.42l-2.87,0.25c-3.77,0.37-5.21,0.66-5.62,0.7
			c-0.45,0.04-0.49,0-0.53-0.41l-0.25-2.75c-0.04-0.41,0-0.45,0.45-0.49c0.41-0.04,1.85-0.04,5.58-0.41l3.24-0.29v-2.62l-1.97,0.16
			c-3.73,0.33-5.08,0.53-5.49,0.57s-0.45,0-0.49-0.41l-0.25-2.79c-0.04-0.37,0-0.41,0.41-0.45c0.41-0.04,1.8,0.04,5.58-0.33
			l2.21-0.21v-2.46c-1.89,0.21-3.73,0.37-5.62,0.49c-1.07,0.08-1.11,0.04-1.39-0.86c-0.37-1.19-0.82-2.09-1.19-2.54
			c5.94-0.08,12.59-0.98,17.22-2.01c1.23-0.29,1.8-0.53,2.5-0.94c0.86,0.7,1.8,1.52,2.46,2.26c0.29,0.29,0.41,0.49,0.41,0.78
			c0,0.25-0.29,0.49-0.78,0.53c-0.49,0-1.15,0.12-1.89,0.33c-2.21,0.53-4.84,1.03-7.58,1.43v2.62L154.66,83.91z"/>
		<path class="st0" d="M189.34,95.35c2.21-0.25,4.55-0.57,6.97-0.98c-0.16,0.66-0.29,1.27-0.37,1.89l-0.12,0.74
			c2.13-2.46,3.61-5.41,4.67-9.18c0.62-2.34,1.11-5.95,1.35-10.46c-2.42,0.04-3.32,0.08-3.53,0.08c-0.45,0-0.49-0.04-0.49-0.45
			v-2.99c0-0.41,0.04-0.45,0.49-0.45c0.21,0,1.15,0.08,3.69,0.08c0-1.07,0.04-2.13,0.04-3.28c0-2.54-0.04-3.81-0.29-5.78
			c1.48,0.04,2.67,0.12,4.1,0.29c0.41,0.04,0.62,0.21,0.62,0.45c0,0.33-0.12,0.61-0.25,0.98c-0.16,0.41-0.25,1.68-0.25,4.18
			c0,1.11,0,2.13-0.04,3.16h2.34c3.16,0,4.22-0.08,4.47-0.08c0.41,0,0.49,0.08,0.49,0.49c-0.08,1.39-0.08,2.58-0.08,3.9
			c-0.04,7.87-0.41,13.94-1.19,18.78c-0.53,3.08-2.05,4.51-5.21,4.51c-0.86,0-1.56-0.04-2.26-0.08c-0.94-0.08-0.94-0.08-1.07-1.43
			c-0.16-1.03-0.41-1.93-0.82-2.75c1.35,0.21,2.34,0.33,3.4,0.33c1.23,0,1.93-0.66,2.21-2.58c0.66-3.98,0.98-9.51,1.02-17.34h-3.44
			c-0.29,4.8-0.82,8.82-1.52,11.77c-1.15,4.67-3.24,8.65-6.07,11.68c-0.41,0.41-0.66,0.62-0.86,0.62s-0.41-0.21-0.78-0.57
			c-0.82-0.94-1.72-1.56-2.62-1.97c0.45-0.41,0.9-0.82,1.31-1.27c-0.21,0.08-0.45,0.12-0.78,0.16c-4.35,0.86-9.68,1.64-14.31,2.13
			c-0.62,0.08-1.31,0.16-1.52,0.29c-0.25,0.12-0.45,0.25-0.7,0.25s-0.45-0.25-0.57-0.7c-0.25-1.07-0.49-2.38-0.7-3.61
			c1.64,0.08,2.79,0.04,4.3-0.04c1.44-0.08,2.99-0.16,4.63-0.33v-2.38h-2.42c-3.57,0-4.76,0.08-5,0.08c-0.41,0-0.45-0.04-0.45-0.41
			v-2.46c0-0.41,0.04-0.45,0.45-0.45c0.25,0,1.43,0.08,5,0.08h2.42v-1.76h-1.64c-3.48,0-4.67,0.08-4.92,0.08
			c-0.45,0-0.49-0.04-0.49-0.45c0-0.29,0.08-1.23,0.08-3.4V80.3c0-2.21-0.08-3.16-0.08-3.36c0-0.41,0.04-0.45,0.49-0.45
			c0.25,0,1.44,0.08,4.92,0.08h1.64v-1.8h-3.03c-3.69,0-4.96,0.08-5.21,0.08c-0.41,0-0.45-0.04-0.45-0.45v-2.42
			c0-0.41,0.04-0.45,0.45-0.45c0.25,0,1.52,0.08,5.21,0.08h3.03v-1.84c-1.76,0.16-3.53,0.33-5.29,0.41
			c-1.15,0.08-1.19,0.04-1.52-0.9c-0.33-0.9-0.78-1.56-1.27-2.21c5.82-0.16,10.25-0.66,14.51-1.56c0.9-0.21,1.64-0.45,2.25-0.7
			c0.94,0.78,1.76,1.56,2.34,2.25c0.25,0.29,0.33,0.45,0.33,0.74c0,0.25-0.33,0.41-0.86,0.41c-0.49,0-1.19,0.16-1.85,0.29
			c-1.64,0.33-3.28,0.62-4.96,0.82v2.3h2.38c3.65,0,4.92-0.08,5.17-0.08c0.37,0,0.41,0.04,0.41,0.45v2.42
			c0,0.41,0.04,0.45-0.33,0.45c-0.25,0-1.6-0.08-5.25-0.08h-2.38v1.8h1.76c3.44,0,4.63-0.08,4.92-0.08c0.41,0,0.45,0.04,0.45,0.45
			c0,0.21-0.08,1.15-0.08,3.36v4.39c0,2.17,0.08,3.16,0.08,3.4c0,0.41-0.04,0.45-0.45,0.45c-0.29,0-1.48-0.08-4.92-0.08h-1.76v1.76
			h1.52c3.53,0,4.76-0.08,5-0.08c0.41,0,0.45,0.04,0.45,0.45v2.46c0,0.37-0.04,0.41-0.45,0.41c-0.25,0-1.48-0.08-5-0.08h-1.52V95.35
			z M185.65,81.28v-2.13h-3.4v2.13H185.65z M185.65,85.83v-2.17h-3.4v2.17H185.65z M189.34,79.15v2.13h3.57v-2.13H189.34z
			 M192.91,83.66h-3.57v2.17h3.57V83.66z"/>
		<path class="st0" d="M230.55,76.65c-0.21,1.68-0.49,3.36-0.86,4.8c-0.21,0.7-0.29,0.98-0.53,0.98c-0.16,0-0.45-0.16-0.9-0.41
			c-0.66-0.33-1.72-0.66-2.42-0.82c1.15-3.81,1.6-7.54,1.72-10.74c0.04-0.78,0.04-1.6-0.08-2.62c1.11,0.12,2.46,0.29,3.44,0.45
			c0.45,0.08,0.62,0.25,0.62,0.49s-0.04,0.37-0.16,0.66c-0.16,0.33-0.21,0.74-0.25,1.39c-0.04,0.66-0.08,1.31-0.16,2.01h1.97v-2.25
			c0-2.91-0.08-4.14-0.33-6.19c1.52,0.04,2.83,0.12,4.22,0.29c0.41,0.04,0.66,0.21,0.66,0.41c0,0.33-0.12,0.53-0.25,0.86
			c-0.21,0.49-0.25,1.52-0.25,4.55v2.34c2.17,0,2.99-0.08,3.2-0.08c0.41,0,0.45,0.04,0.45,0.41v2.79c2.17-2.58,3.53-5.29,4.55-8.32
			c0.33-1.07,0.57-2.05,0.74-3.28c1.11,0.16,2.67,0.41,3.85,0.7c0.45,0.12,0.7,0.29,0.7,0.57c0,0.29-0.12,0.49-0.41,0.82
			s-0.49,0.86-0.82,1.89c-0.37,1.11-0.82,2.21-1.31,3.36h9.55c3.12,0,4.1-0.08,4.35-0.08c0.45,0,0.57,0.12,0.57,0.53
			c-0.04,1.11-0.08,2.21-0.08,3.2c-0.08,9.8-0.41,15.01-1.19,19.72c-0.66,4.39-2.46,6.48-6.11,6.48c-0.74,0-1.89,0-2.95-0.08
			c-1.27-0.08-1.27-0.08-1.52-1.44c-0.25-1.31-0.57-2.3-0.98-3.07c1.89,0.33,3.32,0.41,4.8,0.41c1.85,0,2.46-1.23,2.79-3.4
			c0.62-4.43,1.11-8.98,1.27-17.71c-2.91,10.33-6.97,17.63-14.06,23.12c-0.49,0.37-0.78,0.57-1.02,0.57c-0.29,0-0.49-0.25-0.86-0.78
			c-0.7-1.03-1.52-1.76-2.25-2.25c7.75-5.25,11.93-12.26,14.6-21.53h-2.71c-1.93,6.35-4.92,11.15-9.06,14.92
			c-0.45,0.45-0.74,0.66-0.98,0.66s-0.45-0.21-0.82-0.7c-0.7-0.86-1.56-1.6-2.29-2.09c4.3-3.16,7.42-7.3,9.22-12.79h-2.17
			c-0.86,1.43-1.89,2.83-3.03,4.14c-0.45,0.49-0.66,0.7-0.86,0.7c-0.25,0-0.45-0.21-0.9-0.66c-0.78-0.74-1.64-1.31-2.34-1.72
			l1.07-1.11c-0.41,0-1.31-0.04-2.95-0.08v6.6c1.19-0.57,2.46-1.19,3.81-1.93c0,0.74,0,1.84,0.08,2.75
			c0.08,1.23,0.08,1.27-1.02,1.84c-0.98,0.53-1.93,1.02-2.87,1.48v6.93c0,4.67,0.08,7.01,0.08,7.22c0,0.41-0.04,0.45-0.45,0.45
			h-3.32c-0.41,0-0.45-0.04-0.45-0.45c0-0.25,0.08-2.54,0.08-7.17v-5.08c-0.94,0.41-1.93,0.78-2.87,1.15
			c-0.62,0.29-1.11,0.53-1.31,0.74c-0.25,0.25-0.45,0.41-0.7,0.41c-0.29,0-0.49-0.12-0.66-0.45c-0.49-1.19-0.98-2.71-1.39-3.98
			c1.35-0.29,2.5-0.61,3.85-1.07c1.02-0.33,2.05-0.7,3.08-1.07v-8.36H230.55z"/>
		<path class="st0" d="M276.96,101.99c-0.41,0-0.45-0.04-0.45-0.45c0-0.29,0.08-3.08,0.08-15.91v-8.12c0-8.2-0.08-11.07-0.08-11.32
			c0-0.45,0.04-0.49,0.45-0.49c0.29,0,1.6,0.08,5.41,0.08h22.92c3.81,0,5.12-0.08,5.37-0.08c0.45,0,0.49,0.04,0.49,0.49
			c0,0.25-0.08,3.12-0.08,9.88v9.55c0,12.79,0.08,15.62,0.08,15.87c0,0.41-0.04,0.45-0.49,0.45h-3.28c-0.41,0-0.45-0.04-0.45-0.45
			v-1.64h-26.2v1.68c0,0.41-0.04,0.45-0.45,0.45H276.96z M280.73,96.21h26.2V69.52h-26.2V96.21z M297.38,81.16
			c3.44,0,4.63-0.08,4.88-0.08c0.41,0,0.45,0.04,0.45,0.45c0,0.25-0.08,0.7-0.08,2.09v1.6c0,0.86,0,1.35,0.04,1.68
			c0.16-0.2,0.29-0.45,0.45-0.74c0.9,0.53,1.6,1.02,2.38,1.6c0.21,0.16,0.33,0.33,0.33,0.53c0,0.25-0.16,0.41-0.45,0.49
			c-0.33,0.12-0.53,0.33-0.98,0.7c-0.74,0.57-1.48,1.11-2.3,1.68c1.23,0.53,2.54,1.02,4.02,1.43c-0.53,0.49-1.07,1.27-1.48,2.01
			c-0.37,0.66-0.53,0.94-0.86,0.94c-0.21,0-0.49-0.12-0.94-0.33c-2.75-1.23-5.54-2.95-7.71-5.37c0.04,2.58,0.12,4.84,0.12,5.25
			c0,0.41-0.04,0.45-0.49,0.45h-2.71c-0.41,0-0.45-0.04-0.45-0.45c0-0.41,0.04-2.46,0.08-4.84c-2.13,2.09-4.47,3.61-7.26,4.8
			c-0.41,0.16-0.66,0.29-0.86,0.29c-0.29,0-0.45-0.25-0.78-0.82c-0.45-0.82-0.94-1.52-1.52-2.09c3.85-1.19,6.93-2.71,9.35-4.76
			h-0.37c-3.44,0-4.63,0.08-4.92,0.08c-0.41,0-0.45-0.04-0.45-0.45c0-0.29,0.08-0.74,0.08-2.09v-1.6c0-1.39-0.08-1.8-0.08-2.09
			c0-0.41,0.04-0.45,0.45-0.45c0.29,0,1.48,0.08,4.92,0.08H297.38z M287.91,79.64c-3.94,0-5.21,0.08-5.49,0.08
			c-0.41,0-0.45-0.04-0.45-0.49v-1.89c0-0.41,0.04-0.45,0.45-0.45c0.29,0,1.56,0.08,5.49,0.08h3.73V75.3h-1.89
			c-3.61,0-4.8,0.08-5.04,0.08c-0.45,0-0.49-0.04-0.49-0.45v-1.97c0-0.41,0.04-0.45,0.49-0.45c0.25,0,1.43,0.08,5.04,0.08h1.89
			c-0.04-0.82-0.08-1.72-0.21-2.42c1.39,0.04,2.75,0.16,3.73,0.29c0.53,0.08,0.7,0.21,0.7,0.41c0,0.25-0.16,0.45-0.25,0.61
			c-0.12,0.29-0.16,0.66-0.16,1.11h2.5c3.65,0,4.84-0.08,5.08-0.08c0.41,0,0.45,0.04,0.45,0.45v1.97c0,0.41-0.04,0.45-0.45,0.45
			c-0.25,0-1.44-0.08-5.08-0.08h-2.5v1.68h4.3c3.89,0,5.21-0.08,5.45-0.08c0.41,0,0.45,0.04,0.45,0.45v1.89
			c0,0.45-0.04,0.49-0.45,0.49c-0.25,0-1.56-0.08-5.45-0.08H287.91z M298.94,83.54h-10.33v1.84h10.33V83.54z M296.64,87.68
			c0.82,0.78,1.72,1.48,2.75,2.13c1.03-0.74,1.84-1.43,2.5-2.05c-0.57-0.04-1.89-0.08-4.51-0.08H296.64z"/>
	</g>
	<g>
		<path class="st1" d="M84.18,101.86c-0.41,0-0.45-0.04-0.45-0.41c0-0.7,0.2-8.41,0.29-17.88c-0.94,3.2-2.25,6.11-3.94,8.69
			c-0.29,0.41-0.45,0.66-0.61,0.66s-0.29-0.21-0.45-0.66c-0.41-1.23-0.94-2.38-1.44-3.03c2.54-3.36,4.84-7.71,6.07-12.87h-0.49
			c-2.83,0-3.73,0.08-3.98,0.08c-0.41,0-0.45-0.04-0.45-0.45v-2.95c0-0.37,0.04-0.41,0.45-0.41c0.25,0,1.15,0.08,3.98,0.08h0.74
			v-2.87c0-2.46-0.04-3.85-0.33-5.49c1.56,0.04,2.75,0.12,3.98,0.29c0.41,0.08,0.66,0.25,0.66,0.45c0,0.33-0.08,0.53-0.25,0.86
			c-0.21,0.45-0.25,1.11-0.25,3.85v2.91c2.79,0,3.65-0.08,3.9-0.08c0.41,0,0.45,0.04,0.45,0.41v2.95c0,0.41-0.04,0.45-0.45,0.45
			c-0.25,0-1.11-0.08-3.77-0.08c0.98,2.91,2.79,5.99,4.59,8.04c-0.53,0.78-1.11,1.68-1.44,2.54c-0.16,0.45-0.29,0.7-0.41,0.7
			c-0.16,0-0.29-0.25-0.57-0.66c-0.9-1.43-1.76-3.28-2.42-5.25c0.04,10.7,0.29,19.02,0.29,19.72c0,0.37-0.04,0.41-0.45,0.41H84.18z
			 M104.68,87.19c-0.86,5.49-2.75,9.88-6.23,13.98c-0.37,0.45-0.57,0.66-0.78,0.66s-0.45-0.29-0.86-0.74
			c-0.7-0.82-1.44-1.43-2.26-1.93c4.84-5,6.68-9.72,6.85-19.93h-4.06c-0.04,4.43-0.57,9.59-1.27,12.59
			c-0.82,3.36-1.89,6.07-3.53,8.77c-0.33,0.53-0.53,0.82-0.74,0.82c-0.25,0-0.49-0.25-0.86-0.66c-0.7-0.78-1.52-1.39-2.38-1.84
			c1.72-2.25,2.91-4.92,3.73-8.49c0.66-2.62,1.15-7.17,1.15-11.97v-3.94c0-3.12-0.08-4.84-0.29-7.05c1.56,0.29,2.58,0.53,4.06,0.98
			c4.47-0.57,7.38-1.35,11.03-2.58c0.94-0.33,1.68-0.7,2.42-1.15c1.15,0.86,2.17,1.76,2.99,2.58c0.25,0.25,0.37,0.49,0.37,0.74
			s-0.2,0.53-0.61,0.53c-0.45,0-1.11,0.16-1.85,0.41c-5.21,1.56-9.14,2.42-14.23,2.99v3.49h12.87c3.57,0,4.76-0.08,5-0.08
			c0.45,0,0.49,0.04,0.49,0.45v2.99c0,0.45-0.04,0.49-0.49,0.49c-0.25,0-1.44-0.08-5-0.08h-4.88c-0.04,1.52-0.12,2.95-0.25,4.31
			h4.88c2.3,0,2.95-0.08,3.2-0.08c0.45,0,0.57,0.08,0.53,0.53c-0.12,1.27-0.16,2.75-0.21,3.69c-0.21,5.29-0.7,8.65-1.56,10.99
			c-0.7,2.05-2.01,2.83-4.14,2.83c-0.78,0-1.48-0.04-2.42-0.12c-1.07-0.08-1.07-0.08-1.23-1.43c-0.12-1.07-0.33-1.97-0.7-2.71
			c1.6,0.29,2.5,0.37,3.28,0.37c1.07,0,1.6-0.21,1.97-1.48c0.49-1.76,0.9-5.29,0.98-8.94H104.68z"/>
		<path class="st1" d="M135.55,78c0,3.73-0.33,8.32-0.94,11.85c-0.66,3.85-1.56,7.13-3.48,10.33c-0.33,0.53-0.49,0.78-0.7,0.78
			c-0.16,0-0.37-0.21-0.74-0.66c-0.86-1.02-1.89-1.93-2.67-2.38c1.97-2.75,2.91-5.99,3.53-9.59c0.57-3.36,0.86-7.63,0.86-13.57
			c0-5.82-0.08-8.41-0.08-8.65c0-0.45,0.04-0.49,0.45-0.49c0.25,0,1.68,0.08,5.66,0.08h18.7c3.94,0,5.41-0.08,5.66-0.08
			c0.41,0,0.45,0.04,0.45,0.49c0,0.25-0.08,0.98-0.08,2.99v3.49c0,1.97,0.08,2.71,0.08,2.95c0,0.45-0.04,0.49-0.45,0.49
			c-0.25,0-1.72-0.08-5.66-0.08h-20.58V78z M157.94,69.31h-22.39v3.12h22.39V69.31z M154.66,83.91c3.69-0.33,5.04-0.66,5.41-0.7
			c0.45-0.04,0.45,0,0.49,0.45l0.25,2.67c0.04,0.41,0,0.45-0.41,0.49c-0.57,0.04-1.8,0.12-5.54,0.49l-5.7,0.53v2.62l7.34-0.74
			c3.77-0.33,5.21-0.57,5.62-0.61c0.41-0.04,0.45,0,0.49,0.41l0.25,2.67c0.04,0.41,0,0.45-0.41,0.49c-0.61,0.04-1.93,0.12-5.7,0.49
			l-7.58,0.7v1.11c0,1.56,0,1.93,0.57,2.38c0.45,0.33,1.84,0.37,4.51,0.37c3.12,0,4.63-0.21,5.33-0.7c0.82-0.66,0.98-1.76,1.07-3.57
			c0.78,0.57,1.76,0.94,2.83,1.23c1.07,0.29,1.07,0.29,0.9,1.35c-0.33,2.58-0.9,3.28-2.17,4.14c-1.27,0.9-3.94,1.23-7.95,1.23
			c-4.1,0-6.68-0.25-7.79-1.03c-0.94-0.66-1.44-1.31-1.44-3.69v-2.42l-2.87,0.25c-3.77,0.37-5.21,0.66-5.62,0.7
			c-0.45,0.04-0.49,0-0.53-0.41l-0.25-2.75c-0.04-0.41,0-0.45,0.45-0.49c0.41-0.04,1.85-0.04,5.58-0.41l3.24-0.29v-2.62l-1.97,0.16
			c-3.73,0.33-5.08,0.53-5.49,0.57s-0.45,0-0.49-0.41l-0.25-2.79c-0.04-0.37,0-0.41,0.41-0.45c0.41-0.04,1.8,0.04,5.58-0.33
			l2.21-0.21v-2.46c-1.89,0.21-3.73,0.37-5.62,0.49c-1.07,0.08-1.11,0.04-1.39-0.86c-0.37-1.19-0.82-2.09-1.19-2.54
			c5.94-0.08,12.59-0.98,17.22-2.01c1.23-0.29,1.8-0.53,2.5-0.94c0.86,0.7,1.8,1.52,2.46,2.26c0.29,0.29,0.41,0.49,0.41,0.78
			c0,0.25-0.29,0.49-0.78,0.53c-0.49,0-1.15,0.12-1.89,0.33c-2.21,0.53-4.84,1.03-7.58,1.43v2.62L154.66,83.91z"/>
		<path class="st1" d="M189.34,95.35c2.21-0.25,4.55-0.57,6.97-0.98c-0.16,0.66-0.29,1.27-0.37,1.89l-0.12,0.74
			c2.13-2.46,3.61-5.41,4.67-9.18c0.62-2.34,1.11-5.95,1.35-10.46c-2.42,0.04-3.32,0.08-3.53,0.08c-0.45,0-0.49-0.04-0.49-0.45
			v-2.99c0-0.41,0.04-0.45,0.49-0.45c0.21,0,1.15,0.08,3.69,0.08c0-1.07,0.04-2.13,0.04-3.28c0-2.54-0.04-3.81-0.29-5.78
			c1.48,0.04,2.67,0.12,4.1,0.29c0.41,0.04,0.62,0.21,0.62,0.45c0,0.33-0.12,0.61-0.25,0.98c-0.16,0.41-0.25,1.68-0.25,4.18
			c0,1.11,0,2.13-0.04,3.16h2.34c3.16,0,4.22-0.08,4.47-0.08c0.41,0,0.49,0.08,0.49,0.49c-0.08,1.39-0.08,2.58-0.08,3.9
			c-0.04,7.87-0.41,13.94-1.19,18.78c-0.53,3.08-2.05,4.51-5.21,4.51c-0.86,0-1.56-0.04-2.26-0.08c-0.94-0.08-0.94-0.08-1.07-1.43
			c-0.16-1.03-0.41-1.93-0.82-2.75c1.35,0.21,2.34,0.33,3.4,0.33c1.23,0,1.93-0.66,2.21-2.58c0.66-3.98,0.98-9.51,1.02-17.34h-3.44
			c-0.29,4.8-0.82,8.82-1.52,11.77c-1.15,4.67-3.24,8.65-6.07,11.68c-0.41,0.41-0.66,0.62-0.86,0.62s-0.41-0.21-0.78-0.57
			c-0.82-0.94-1.72-1.56-2.62-1.97c0.45-0.41,0.9-0.82,1.31-1.27c-0.21,0.08-0.45,0.12-0.78,0.16c-4.35,0.86-9.68,1.64-14.31,2.13
			c-0.62,0.08-1.31,0.16-1.52,0.29c-0.25,0.12-0.45,0.25-0.7,0.25s-0.45-0.25-0.57-0.7c-0.25-1.07-0.49-2.38-0.7-3.61
			c1.64,0.08,2.79,0.04,4.3-0.04c1.44-0.08,2.99-0.16,4.63-0.33v-2.38h-2.42c-3.57,0-4.76,0.08-5,0.08c-0.41,0-0.45-0.04-0.45-0.41
			v-2.46c0-0.41,0.04-0.45,0.45-0.45c0.25,0,1.43,0.08,5,0.08h2.42v-1.76h-1.64c-3.48,0-4.67,0.08-4.92,0.08
			c-0.45,0-0.49-0.04-0.49-0.45c0-0.29,0.08-1.23,0.08-3.4V80.3c0-2.21-0.08-3.16-0.08-3.36c0-0.41,0.04-0.45,0.49-0.45
			c0.25,0,1.44,0.08,4.92,0.08h1.64v-1.8h-3.03c-3.69,0-4.96,0.08-5.21,0.08c-0.41,0-0.45-0.04-0.45-0.45v-2.42
			c0-0.41,0.04-0.45,0.45-0.45c0.25,0,1.52,0.08,5.21,0.08h3.03v-1.84c-1.76,0.16-3.53,0.33-5.29,0.41
			c-1.15,0.08-1.19,0.04-1.52-0.9c-0.33-0.9-0.78-1.56-1.27-2.21c5.82-0.16,10.25-0.66,14.51-1.56c0.9-0.21,1.64-0.45,2.25-0.7
			c0.94,0.78,1.76,1.56,2.34,2.25c0.25,0.29,0.33,0.45,0.33,0.74c0,0.25-0.33,0.41-0.86,0.41c-0.49,0-1.19,0.16-1.85,0.29
			c-1.64,0.33-3.28,0.62-4.96,0.82v2.3h2.38c3.65,0,4.92-0.08,5.17-0.08c0.37,0,0.41,0.04,0.41,0.45v2.42
			c0,0.41,0.04,0.45-0.33,0.45c-0.25,0-1.6-0.08-5.25-0.08h-2.38v1.8h1.76c3.44,0,4.63-0.08,4.92-0.08c0.41,0,0.45,0.04,0.45,0.45
			c0,0.21-0.08,1.15-0.08,3.36v4.39c0,2.17,0.08,3.16,0.08,3.4c0,0.41-0.04,0.45-0.45,0.45c-0.29,0-1.48-0.08-4.92-0.08h-1.76v1.76
			h1.52c3.53,0,4.76-0.08,5-0.08c0.41,0,0.45,0.04,0.45,0.45v2.46c0,0.37-0.04,0.41-0.45,0.41c-0.25,0-1.48-0.08-5-0.08h-1.52V95.35
			z M185.65,81.28v-2.13h-3.4v2.13H185.65z M185.65,85.83v-2.17h-3.4v2.17H185.65z M189.34,79.15v2.13h3.57v-2.13H189.34z
			 M192.91,83.66h-3.57v2.17h3.57V83.66z"/>
		<path class="st1" d="M230.55,76.65c-0.21,1.68-0.49,3.36-0.86,4.8c-0.21,0.7-0.29,0.98-0.53,0.98c-0.16,0-0.45-0.16-0.9-0.41
			c-0.66-0.33-1.72-0.66-2.42-0.82c1.15-3.81,1.6-7.54,1.72-10.74c0.04-0.78,0.04-1.6-0.08-2.62c1.11,0.12,2.46,0.29,3.44,0.45
			c0.45,0.08,0.62,0.25,0.62,0.49s-0.04,0.37-0.16,0.66c-0.16,0.33-0.21,0.74-0.25,1.39c-0.04,0.66-0.08,1.31-0.16,2.01h1.97v-2.25
			c0-2.91-0.08-4.14-0.33-6.19c1.52,0.04,2.83,0.12,4.22,0.29c0.41,0.04,0.66,0.21,0.66,0.41c0,0.33-0.12,0.53-0.25,0.86
			c-0.21,0.49-0.25,1.52-0.25,4.55v2.34c2.17,0,2.99-0.08,3.2-0.08c0.41,0,0.45,0.04,0.45,0.41v2.79c2.17-2.58,3.53-5.29,4.55-8.32
			c0.33-1.07,0.57-2.05,0.74-3.28c1.11,0.16,2.67,0.41,3.85,0.7c0.45,0.12,0.7,0.29,0.7,0.57c0,0.29-0.12,0.49-0.41,0.82
			s-0.49,0.86-0.82,1.89c-0.37,1.11-0.82,2.21-1.31,3.36h9.55c3.12,0,4.1-0.08,4.35-0.08c0.45,0,0.57,0.12,0.57,0.53
			c-0.04,1.11-0.08,2.21-0.08,3.2c-0.08,9.8-0.41,15.01-1.19,19.72c-0.66,4.39-2.46,6.48-6.11,6.48c-0.74,0-1.89,0-2.95-0.08
			c-1.27-0.08-1.27-0.08-1.52-1.44c-0.25-1.31-0.57-2.3-0.98-3.07c1.89,0.33,3.32,0.41,4.8,0.41c1.85,0,2.46-1.23,2.79-3.4
			c0.62-4.43,1.11-8.98,1.27-17.71c-2.91,10.33-6.97,17.63-14.06,23.12c-0.49,0.37-0.78,0.57-1.02,0.57c-0.29,0-0.49-0.25-0.86-0.78
			c-0.7-1.03-1.52-1.76-2.25-2.25c7.75-5.25,11.93-12.26,14.6-21.53h-2.71c-1.93,6.35-4.92,11.15-9.06,14.92
			c-0.45,0.45-0.74,0.66-0.98,0.66s-0.45-0.21-0.82-0.7c-0.7-0.86-1.56-1.6-2.29-2.09c4.3-3.16,7.42-7.3,9.22-12.79h-2.17
			c-0.86,1.43-1.89,2.83-3.03,4.14c-0.45,0.49-0.66,0.7-0.86,0.7c-0.25,0-0.45-0.21-0.9-0.66c-0.78-0.74-1.64-1.31-2.34-1.72
			l1.07-1.11c-0.41,0-1.31-0.04-2.95-0.08v6.6c1.19-0.57,2.46-1.19,3.81-1.93c0,0.74,0,1.84,0.08,2.75
			c0.08,1.23,0.08,1.27-1.02,1.84c-0.98,0.53-1.93,1.02-2.87,1.48v6.93c0,4.67,0.08,7.01,0.08,7.22c0,0.41-0.04,0.45-0.45,0.45
			h-3.32c-0.41,0-0.45-0.04-0.45-0.45c0-0.25,0.08-2.54,0.08-7.17v-5.08c-0.94,0.41-1.93,0.78-2.87,1.15
			c-0.62,0.29-1.11,0.53-1.31,0.74c-0.25,0.25-0.45,0.41-0.7,0.41c-0.29,0-0.49-0.12-0.66-0.45c-0.49-1.19-0.98-2.71-1.39-3.98
			c1.35-0.29,2.5-0.61,3.85-1.07c1.02-0.33,2.05-0.7,3.08-1.07v-8.36H230.55z"/>
		<path class="st1" d="M276.96,101.99c-0.41,0-0.45-0.04-0.45-0.45c0-0.29,0.08-3.08,0.08-15.91v-8.12c0-8.2-0.08-11.07-0.08-11.32
			c0-0.45,0.04-0.49,0.45-0.49c0.29,0,1.6,0.08,5.41,0.08h22.92c3.81,0,5.12-0.08,5.37-0.08c0.45,0,0.49,0.04,0.49,0.49
			c0,0.25-0.08,3.12-0.08,9.88v9.55c0,12.79,0.08,15.62,0.08,15.87c0,0.41-0.04,0.45-0.49,0.45h-3.28c-0.41,0-0.45-0.04-0.45-0.45
			v-1.64h-26.2v1.68c0,0.41-0.04,0.45-0.45,0.45H276.96z M280.73,96.21h26.2V69.52h-26.2V96.21z M297.38,81.16
			c3.44,0,4.63-0.08,4.88-0.08c0.41,0,0.45,0.04,0.45,0.45c0,0.25-0.08,0.7-0.08,2.09v1.6c0,0.86,0,1.35,0.04,1.68
			c0.16-0.2,0.29-0.45,0.45-0.74c0.9,0.53,1.6,1.02,2.38,1.6c0.21,0.16,0.33,0.33,0.33,0.53c0,0.25-0.16,0.41-0.45,0.49
			c-0.33,0.12-0.53,0.33-0.98,0.7c-0.74,0.57-1.48,1.11-2.3,1.68c1.23,0.53,2.54,1.02,4.02,1.43c-0.53,0.49-1.07,1.27-1.48,2.01
			c-0.37,0.66-0.53,0.94-0.86,0.94c-0.21,0-0.49-0.12-0.94-0.33c-2.75-1.23-5.54-2.95-7.71-5.37c0.04,2.58,0.12,4.84,0.12,5.25
			c0,0.41-0.04,0.45-0.49,0.45h-2.71c-0.41,0-0.45-0.04-0.45-0.45c0-0.41,0.04-2.46,0.08-4.84c-2.13,2.09-4.47,3.61-7.26,4.8
			c-0.41,0.16-0.66,0.29-0.86,0.29c-0.29,0-0.45-0.25-0.78-0.82c-0.45-0.82-0.94-1.52-1.52-2.09c3.85-1.19,6.93-2.71,9.35-4.76
			h-0.37c-3.44,0-4.63,0.08-4.92,0.08c-0.41,0-0.45-0.04-0.45-0.45c0-0.29,0.08-0.74,0.08-2.09v-1.6c0-1.39-0.08-1.8-0.08-2.09
			c0-0.41,0.04-0.45,0.45-0.45c0.29,0,1.48,0.08,4.92,0.08H297.38z M287.91,79.64c-3.94,0-5.21,0.08-5.49,0.08
			c-0.41,0-0.45-0.04-0.45-0.49v-1.89c0-0.41,0.04-0.45,0.45-0.45c0.29,0,1.56,0.08,5.49,0.08h3.73V75.3h-1.89
			c-3.61,0-4.8,0.08-5.04,0.08c-0.45,0-0.49-0.04-0.49-0.45v-1.97c0-0.41,0.04-0.45,0.49-0.45c0.25,0,1.43,0.08,5.04,0.08h1.89
			c-0.04-0.82-0.08-1.72-0.21-2.42c1.39,0.04,2.75,0.16,3.73,0.29c0.53,0.08,0.7,0.21,0.7,0.41c0,0.25-0.16,0.45-0.25,0.61
			c-0.12,0.29-0.16,0.66-0.16,1.11h2.5c3.65,0,4.84-0.08,5.08-0.08c0.41,0,0.45,0.04,0.45,0.45v1.97c0,0.41-0.04,0.45-0.45,0.45
			c-0.25,0-1.44-0.08-5.08-0.08h-2.5v1.68h4.3c3.89,0,5.21-0.08,5.45-0.08c0.41,0,0.45,0.04,0.45,0.45v1.89
			c0,0.45-0.04,0.49-0.45,0.49c-0.25,0-1.56-0.08-5.45-0.08H287.91z M298.94,83.54h-10.33v1.84h10.33V83.54z M296.64,87.68
			c0.82,0.78,1.72,1.48,2.75,2.13c1.03-0.74,1.84-1.43,2.5-2.05c-0.57-0.04-1.89-0.08-4.51-0.08H296.64z"/>
	</g>
</g>
<g>
	<g>
		<path class="st0" d="M79.44,113.02c-0.79,0-1.38,0.04-1.86,0.09c-0.11,0.01-0.15-0.03-0.17-0.11c-0.04-0.17-0.09-0.48-0.11-0.69
			c0.61,0.06,1.2,0.07,2.06,0.07h4.16c0.56,0,0.66-0.03,0.75-0.06c0.05-0.02,0.11-0.04,0.15-0.04c0.05,0,0.1,0.03,0.15,0.07
			c0.14,0.12,0.26,0.24,0.37,0.39c0.08,0.1,0.07,0.21-0.05,0.29c-0.09,0.05-0.16,0.16-0.22,0.25c-0.46,0.69-1.14,1.39-1.91,1.97
			c-0.08,0.06-0.18,0.06-0.26-0.01c-0.15-0.12-0.31-0.19-0.52-0.25c0.86-0.55,1.55-1.21,2.03-1.97H79.44z M80.1,117.16
			c0.37-0.77,0.5-1.57,0.5-2.46c0-0.33-0.03-0.56-0.09-0.83c0.29,0.02,0.6,0.07,0.79,0.14c0.16,0.06,0.16,0.17,0.1,0.29
			c-0.05,0.09-0.08,0.21-0.08,0.49c0,0.85-0.16,1.84-0.57,2.66c-0.39,0.78-1.09,1.48-1.88,1.98c-0.1,0.06-0.21,0.08-0.3,0
			c-0.14-0.13-0.32-0.23-0.54-0.31C79.02,118.61,79.72,117.96,80.1,117.16z"/>
		<path class="st0" d="M92.66,117.68c0,0.6,0.01,1.17,0.03,1.81c0.01,0.09-0.02,0.12-0.1,0.12c-0.18,0.01-0.4,0.01-0.58,0
			c-0.08,0-0.1-0.03-0.1-0.12c0.02-0.6,0.04-1.2,0.04-1.78v-2.96c-1.05,0.93-2.03,1.61-3.14,2.26c-0.09,0.05-0.16,0.03-0.23-0.04
			c-0.13-0.13-0.31-0.23-0.5-0.32c1.24-0.68,2.28-1.4,3.11-2.11c0.76-0.65,1.47-1.36,1.94-1.93c0.42-0.51,0.6-0.81,0.69-1.13
			c0.27,0.14,0.54,0.3,0.69,0.45c0.1,0.1,0.08,0.22-0.04,0.28c-0.12,0.06-0.31,0.24-0.56,0.53c-0.42,0.51-0.78,0.91-1.25,1.38
			V117.68z"/>
		<path class="st0" d="M104.78,113.8h-3.63c-0.59,0-1.03,0.02-1.45,0.05c-0.1,0-0.13-0.03-0.14-0.13c-0.02-0.17-0.03-0.46-0.03-0.65
			c0.59,0.05,1.02,0.06,1.61,0.06h2.54c0.55,0,1.13-0.02,1.68-0.03c0.13,0,0.17,0.03,0.16,0.15c-0.01,0.47-0.02,0.97-0.02,1.48v2.17
			c0,0.6,0.02,1.28,0.03,1.69c0,0.1-0.02,0.12-0.12,0.12c-0.15,0.01-0.35,0.01-0.49,0c-0.12,0-0.14-0.01-0.14-0.13v-0.44h-3.63
			c-0.57,0-1.09,0.02-1.56,0.04c-0.08,0.01-0.1-0.02-0.11-0.12c-0.02-0.17-0.03-0.41-0.03-0.64c0.51,0.04,1.06,0.05,1.7,0.05h3.63
			V113.8z"/>
		<path class="st0" d="M110.37,112.63c0.07-0.07,0.12-0.06,0.18-0.02c0.56,0.31,1.22,0.78,1.8,1.33c0.07,0.07,0.08,0.11,0.03,0.19
			c-0.08,0.12-0.26,0.35-0.34,0.43c-0.06,0.07-0.09,0.08-0.16,0.01c-0.59-0.58-1.25-1.09-1.9-1.48
			C110.11,112.93,110.26,112.75,110.37,112.63z M111.27,117.93c1.08-0.57,1.96-1.11,2.89-1.86c1.01-0.83,1.84-1.57,2.7-2.69
			c0.04,0.28,0.1,0.47,0.17,0.66c0.06,0.13,0.05,0.21-0.07,0.35c-0.67,0.79-1.55,1.59-2.43,2.3c-0.85,0.68-1.85,1.32-3,1.95
			c-0.27,0.16-0.46,0.31-0.55,0.39c-0.1,0.09-0.18,0.09-0.27-0.01c-0.15-0.16-0.33-0.4-0.49-0.68
			C110.61,118.23,110.91,118.11,111.27,117.93z"/>
		<path class="st0" d="M124.92,117.94c0,0.08-0.02,0.11-0.11,0.12c-0.1,0.02-0.3,0.04-0.43,0.04c-0.06,0-0.09-0.05-0.09-0.12
			c0-0.44,0-0.93,0.01-1.44c-1.1,0.55-1.64,1.06-1.64,1.66c0,0.59,0.55,0.83,1.71,0.83c0.83,0,1.65-0.1,2.38-0.2
			c0.05-0.01,0.09,0,0.11,0.07c0.03,0.15,0.06,0.35,0.06,0.49c0,0.09-0.04,0.13-0.08,0.14c-0.71,0.09-1.53,0.14-2.47,0.14
			c-1.4,0-2.31-0.36-2.31-1.43c0-0.84,0.55-1.52,2.21-2.33c-0.02-0.68-0.25-0.95-0.84-0.94c-0.43,0.01-1,0.26-1.64,0.81
			c-0.36,0.34-0.6,0.6-0.95,0.97c-0.06,0.07-0.1,0.07-0.15,0.02c-0.1-0.09-0.27-0.28-0.35-0.39c-0.03-0.06-0.04-0.08,0.02-0.14
			c0.91-0.79,1.74-1.76,2.32-2.78c-0.62,0.04-1.23,0.04-1.86,0.02c-0.08,0-0.1-0.03-0.11-0.1c-0.02-0.12-0.05-0.34-0.06-0.5
			c0.73,0.04,1.51,0.04,2.32-0.01c0.12-0.3,0.26-0.63,0.36-1c0.05-0.17,0.09-0.32,0.08-0.54c0.29,0.05,0.58,0.14,0.75,0.22
			c0.1,0.05,0.1,0.15,0.02,0.22c-0.04,0.04-0.1,0.11-0.18,0.28c-0.12,0.25-0.21,0.46-0.34,0.76c0.7-0.07,1.42-0.18,2.11-0.33
			c0.08-0.02,0.1-0.02,0.12,0.04c0.02,0.14,0.05,0.28,0.06,0.44c0,0.07-0.02,0.1-0.13,0.12c-0.79,0.14-1.64,0.25-2.44,0.33
			c-0.34,0.61-0.66,1.08-1.02,1.49l0.01,0.02c0.42-0.3,0.86-0.43,1.25-0.43c0.74,0,1.18,0.39,1.26,1.17
			c0.49-0.22,1.06-0.48,1.56-0.72c0.29-0.14,0.55-0.3,0.76-0.51c0.23,0.2,0.43,0.46,0.49,0.58c0.08,0.15,0,0.21-0.1,0.23
			c-0.12,0.02-0.32,0.07-0.55,0.16c-0.76,0.32-1.39,0.55-2.12,0.86V117.94z"/>
		<path class="st0" d="M136.77,112.9c0.34-0.01,0.45-0.04,0.53-0.11c0.09-0.08,0.17-0.08,0.27-0.02c0.13,0.08,0.31,0.26,0.43,0.4
			c0.08,0.1,0.06,0.19-0.04,0.27c-0.09,0.07-0.16,0.14-0.24,0.3c-0.43,0.93-0.99,1.87-1.59,2.65c0.4,0.32,0.81,0.68,1.2,1.1
			c0.06,0.06,0.03,0.11-0.01,0.18c-0.07,0.12-0.22,0.26-0.33,0.34c-0.08,0.06-0.11,0.05-0.16-0.01c-0.34-0.39-0.74-0.78-1.12-1.1
			c-1.03,1.17-2.13,2-3.47,2.73c-0.11,0.06-0.18,0.08-0.27-0.01c-0.16-0.14-0.35-0.24-0.56-0.32c1.52-0.76,2.75-1.65,3.76-2.81
			c-0.42-0.34-0.98-0.7-1.57-1.02c0.11-0.15,0.22-0.28,0.35-0.4c0.05-0.05,0.08-0.07,0.16-0.03c0.45,0.23,1.01,0.6,1.49,0.94
			c0.56-0.71,1.11-1.64,1.46-2.49l-2.95,0.06c-0.69,0.94-1.23,1.54-2.18,2.32c-0.1,0.08-0.17,0.1-0.26,0.03
			c-0.13-0.11-0.29-0.2-0.48-0.28c1.38-1.05,2.26-2.15,2.86-3.23c0.23-0.41,0.32-0.66,0.4-0.99c0.24,0.07,0.5,0.2,0.71,0.34
			c0.12,0.08,0.09,0.2-0.02,0.28c-0.12,0.09-0.22,0.22-0.29,0.34c-0.11,0.19-0.2,0.34-0.36,0.58L136.77,112.9z"/>
		<path class="st0" d="M143.07,114.45c0.08-0.04,0.12-0.02,0.18,0.05c0.33,0.42,0.6,0.86,0.82,1.4c0.04,0.1,0.04,0.12-0.05,0.18
			c-0.13,0.08-0.25,0.13-0.38,0.18c-0.09,0.04-0.13,0-0.16-0.08c-0.21-0.5-0.51-1.06-0.86-1.49
			C142.8,114.59,142.95,114.51,143.07,114.45z M148.4,114.46c0.09,0.07,0.1,0.16,0.01,0.24c-0.1,0.09-0.17,0.22-0.29,0.48
			c-0.43,0.98-0.91,1.87-1.47,2.58c-0.62,0.8-1.2,1.35-2.02,1.9c-0.07,0.05-0.16,0.07-0.22,0.01c-0.15-0.12-0.31-0.2-0.52-0.25
			c1.04-0.68,1.62-1.2,2.24-1.99c0.54-0.69,1.04-1.6,1.36-2.46c0.09-0.26,0.13-0.48,0.17-0.82
			C147.91,114.22,148.24,114.34,148.4,114.46z M145.02,113.99c0.07-0.03,0.12-0.02,0.17,0.06c0.28,0.38,0.56,0.89,0.75,1.39
			c0.03,0.08,0.01,0.12-0.07,0.16c-0.11,0.06-0.25,0.13-0.4,0.19c-0.07,0.03-0.1,0-0.14-0.09c-0.21-0.55-0.43-1.02-0.77-1.48
			C144.77,114.11,144.9,114.04,145.02,113.99z"/>
		<path class="st0" d="M154.62,113.5c-0.59,0-1.14,0.02-1.68,0.06c-0.12,0.01-0.16-0.03-0.18-0.16c-0.01-0.14-0.04-0.45-0.05-0.62
			c0.62,0.06,1.18,0.08,1.92,0.08h3.54c0.29,0,0.39-0.03,0.5-0.09c0.08-0.05,0.18-0.04,0.26,0.01c0.17,0.12,0.33,0.27,0.45,0.41
			c0.08,0.11,0.07,0.22-0.03,0.31c-0.09,0.08-0.15,0.18-0.22,0.34c-0.48,1.27-1.18,2.4-1.96,3.28c-0.81,0.91-1.73,1.73-2.97,2.41
			c-0.12,0.08-0.25,0.08-0.34-0.02c-0.12-0.12-0.31-0.25-0.52-0.34c1.53-0.76,2.39-1.51,3.23-2.47c0.75-0.84,1.46-1.95,1.88-3.2
			H154.62z M161.15,111.9c0,0.56-0.45,1.01-1.01,1.01s-1.01-0.45-1.01-1.01c0-0.56,0.45-1.01,1.01-1.01S161.15,111.34,161.15,111.9z
			 M159.51,111.9c0,0.35,0.28,0.63,0.63,0.63c0.35,0,0.63-0.28,0.63-0.63c0-0.35-0.28-0.63-0.63-0.63
			C159.79,111.27,159.51,111.55,159.51,111.9z"/>
		<path class="st0" d="M171.22,113.48c0,0.09-0.03,0.1-0.13,0.1c-1.07-0.03-2.05-0.04-3.18,0c0,0.63,0,1.32,0.01,1.99
			c0.08,0.31,0.12,0.67,0.12,1.05c0,1.26-0.54,2.33-1.95,3.09c-0.1,0.06-0.18,0.09-0.23,0.09c-0.06,0-0.12-0.03-0.18-0.08
			c-0.11-0.1-0.29-0.22-0.46-0.28c1.43-0.59,2.09-1.51,2.18-2.52c-0.22,0.38-0.65,0.57-1.1,0.57c-0.69,0-1.32-0.46-1.32-1.41
			c0-0.85,0.63-1.39,1.37-1.39c0.38,0,0.73,0.11,0.94,0.34c-0.01-0.49-0.01-0.94-0.02-1.41c-1.43,0.08-2.78,0.18-3.73,0.3
			c-0.24,0.03-0.36,0.1-0.44,0.1c-0.06,0-0.1-0.03-0.12-0.1c-0.06-0.13-0.11-0.37-0.16-0.64c0.34,0.02,0.67-0.01,1.26-0.06
			c0.81-0.06,1.84-0.13,3.17-0.21c-0.01-0.41-0.01-0.61-0.02-0.93c-0.01-0.25-0.03-0.41-0.1-0.67c0.3,0.02,0.59,0.07,0.76,0.11
			c0.11,0.03,0.18,0.08,0.18,0.15c0,0.06-0.03,0.11-0.07,0.18c-0.04,0.07-0.06,0.14-0.07,0.27c-0.02,0.22-0.02,0.41-0.02,0.85
			c1.11-0.03,2.09-0.03,3.2-0.03c0.09,0,0.11,0.01,0.11,0.11V113.48z M165.57,116.06c0,0.55,0.36,0.86,0.81,0.86
			c0.56,0,0.91-0.43,0.91-0.88c0-0.5-0.37-0.85-0.89-0.85C165.96,115.19,165.57,115.52,165.57,116.06z"/>
		<path class="st0" d="M176.52,115.64c0.72-0.47,1.43-0.71,2.15-0.71c1.44,0,2.33,0.89,2.33,2.19c0,1.49-1.18,2.57-3.3,2.57
			c-1.2,0-1.74-0.54-1.74-1.18c0-0.52,0.46-1.02,1.17-1.02c0.9,0,1.51,0.58,1.7,1.43c0.86-0.28,1.46-0.84,1.46-1.82
			c0-1.02-0.78-1.64-1.73-1.64c-0.99,0-1.98,0.51-2.75,1.13c-0.32,0.25-0.58,0.52-0.88,0.82c-0.08,0.08-0.13,0.09-0.2,0.02
			c-0.12-0.12-0.27-0.27-0.37-0.4c-0.04-0.05-0.03-0.09,0.04-0.15c0.79-0.69,1.3-1.2,2.26-2.23c0.58-0.63,1.18-1.27,1.95-2.18
			c-0.83,0.13-1.61,0.28-2.5,0.45c-0.13,0.02-0.25,0.05-0.35,0.09c-0.07,0.03-0.15,0.05-0.19,0.05c-0.07,0-0.12-0.04-0.16-0.12
			c-0.09-0.18-0.16-0.37-0.24-0.69c0.33,0.04,0.61,0.04,0.88,0.01c0.79-0.08,1.61-0.19,2.49-0.36c0.12-0.02,0.24-0.05,0.31-0.09
			c0.04-0.03,0.1-0.07,0.14-0.07c0.05,0,0.1,0.02,0.18,0.08c0.19,0.15,0.34,0.3,0.43,0.42c0.05,0.06,0.07,0.12,0.07,0.17
			c0,0.08-0.05,0.15-0.15,0.19c-0.13,0.04-0.24,0.11-0.47,0.35c-0.89,0.94-1.56,1.64-2.56,2.66L176.52,115.64z M177.15,118.03
			c-0.32,0-0.61,0.16-0.61,0.47c0,0.33,0.36,0.61,1.03,0.61c0.22,0,0.42-0.01,0.65-0.05C178.09,118.49,177.72,118.03,177.15,118.03z
			"/>
		<path class="st0" d="M187.67,111.65c0.08,0.02,0.12,0.08,0.12,0.13c0,0.1-0.05,0.19-0.05,0.35c0.01,0.22,0.03,0.42,0.06,0.64
			c0.09,0.72,0.21,1.39,0.39,2.02c0.59-0.29,1.19-0.57,1.78-0.9c0.32-0.18,0.44-0.28,0.58-0.46c0.2,0.19,0.38,0.38,0.51,0.56
			c0.08,0.12,0.06,0.26-0.12,0.28c-0.25,0.04-0.58,0.18-0.88,0.32c-0.73,0.34-1.59,0.75-2.27,1.14c-1.01,0.59-1.48,1.11-1.48,1.81
			c0,0.89,0.84,1.11,2.35,1.1c0.93-0.01,1.83-0.1,2.57-0.21c0.09-0.01,0.12,0.01,0.14,0.09c0.03,0.16,0.05,0.35,0.06,0.52
			c0.01,0.09-0.03,0.13-0.14,0.14c-0.82,0.09-1.54,0.14-2.66,0.14c-1.73,0-2.98-0.38-2.98-1.75c0-0.96,0.68-1.7,1.95-2.47
			c-0.22-0.74-0.43-1.77-0.53-2.56c-0.06-0.46-0.11-0.71-0.22-0.98C187.14,111.57,187.46,111.6,187.67,111.65z"/>
		<path class="st0" d="M199.67,113.4c0,0.07,0,0.08-0.06,0.08c-0.05,0-0.36-0.02-1.28-0.02h-0.7v0.64h0.54
			c0.85,0,1.13-0.02,1.19-0.02c0.07,0,0.08,0.01,0.08,0.08c0,0.05-0.02,0.24-0.02,0.82v0.98c0,0.56,0.02,0.77,0.02,0.82
			c0,0.07-0.01,0.08-0.08,0.08c-0.06,0-0.26-0.02-1.19-0.02h-0.54v0.64h0.53c0.88,0,1.16-0.02,1.22-0.02c0.07,0,0.08,0.01,0.08,0.08
			v0.36c0,0.07-0.01,0.08-0.08,0.08c-0.06,0-0.34-0.02-1.22-0.02h-0.53v0.72c0.62-0.08,1.26-0.18,1.84-0.3
			c-0.04,0.12-0.06,0.21-0.07,0.3c-0.02,0.21-0.02,0.2-0.22,0.24c-1.16,0.23-2.35,0.4-3.57,0.54c-0.2,0.02-0.35,0.06-0.39,0.08
			c-0.04,0.02-0.08,0.05-0.12,0.05c-0.05,0-0.09-0.03-0.12-0.12c-0.04-0.15-0.1-0.37-0.14-0.57c0.34,0.01,0.63,0,1.03-0.03
			c0.35-0.03,0.77-0.07,1.22-0.12v-0.79h-0.7c-0.88,0-1.16,0.02-1.22,0.02c-0.07,0-0.08-0.01-0.08-0.08v-0.36
			c0-0.07,0.01-0.08,0.08-0.08c0.06,0,0.34,0.02,1.22,0.02h0.7v-0.64h-0.49c-0.85,0-1.13,0.02-1.19,0.02
			c-0.07,0-0.08-0.01-0.08-0.08c0-0.06,0.02-0.26,0.02-0.82v-0.97c0-0.58-0.02-0.78-0.02-0.83c0-0.07,0.01-0.08,0.08-0.08
			c0.06,0,0.34,0.02,1.19,0.02h0.49v-0.64h-0.85c-0.91,0-1.22,0.02-1.27,0.02c-0.07,0-0.08-0.01-0.08-0.08v-0.37
			c0-0.07,0.01-0.08,0.08-0.08c0.05,0,0.36,0.02,1.27,0.02h0.85v-0.66c-0.49,0.07-0.98,0.13-1.53,0.18
			c-0.18,0.01-0.2,0.02-0.26-0.12c-0.06-0.15-0.14-0.26-0.22-0.35c1.46-0.09,2.44-0.25,3.44-0.52c0.18-0.05,0.34-0.11,0.46-0.19
			c0.16,0.12,0.29,0.23,0.39,0.33c0.06,0.06,0.08,0.09,0.08,0.14c0,0.06-0.08,0.09-0.17,0.09s-0.24,0.04-0.39,0.07
			c-0.44,0.11-0.85,0.2-1.26,0.28v0.75h0.7c0.92,0,1.22-0.02,1.27-0.02c0.06,0,0.07,0.01,0.07,0.08V113.4z M197.1,114.53h-1.21v0.72
			h1.21V114.53z M197.1,115.66h-1.21v0.76h1.21V115.66z M198.9,114.53h-1.27v0.72h1.27V114.53z M198.9,115.66h-1.27v0.76h1.27
			V115.66z M202.25,113.48c0.79,0,1.04-0.02,1.1-0.02c0.07,0,0.09,0.02,0.09,0.09c-0.02,0.31-0.02,0.59-0.02,0.89
			c-0.02,1.59-0.09,3.22-0.29,4.45c-0.12,0.7-0.46,1-1.08,1c-0.28,0-0.5-0.01-0.71-0.02c-0.17-0.01-0.17-0.06-0.18-0.17
			c-0.01-0.18-0.07-0.35-0.14-0.48c0.33,0.06,0.64,0.09,0.98,0.09c0.33,0,0.49-0.18,0.57-0.69c0.18-1.08,0.26-2.77,0.26-4.6h-1.2
			c-0.04,1.01-0.15,1.99-0.36,2.8c-0.35,1.28-0.86,2.26-1.91,3.09c-0.08,0.06-0.11,0.09-0.15,0.09c-0.03,0-0.07-0.03-0.13-0.09
			c-0.11-0.12-0.25-0.21-0.4-0.27c1.13-0.71,1.68-1.72,2.04-3.03c0.18-0.66,0.28-1.6,0.33-2.59h-0.1c-0.78,0-1.02,0.02-1.07,0.02
			c-0.08,0-0.09-0.01-0.09-0.08v-0.42c0-0.07,0.01-0.08,0.09-0.08c0.05,0,0.29,0.02,1.07,0.02h0.12c0.01-0.38,0.02-0.76,0.02-1.13
			c0-0.62-0.01-0.86-0.07-1.23c0.23,0.01,0.44,0.03,0.65,0.07c0.07,0.01,0.11,0.05,0.11,0.09c0,0.07-0.02,0.12-0.05,0.21
			c-0.04,0.1-0.06,0.4-0.06,0.93c0,0.35,0,0.71-0.01,1.06H202.25z"/>
		<path class="st0" d="M209.04,113.77c0,0.07-0.01,0.08-0.08,0.08c-0.05,0-0.26-0.02-0.96-0.02h-0.05v2.05
			c0.34-0.17,0.69-0.36,1.07-0.59c-0.01,0.14-0.01,0.25,0.01,0.4c0.03,0.2,0.02,0.2-0.16,0.3c-0.3,0.16-0.6,0.32-0.92,0.48v1.82
			c0,1.19,0.02,1.72,0.02,1.77c0,0.07-0.01,0.07-0.08,0.07h-0.46c-0.07,0-0.08,0-0.08-0.07c0-0.06,0.02-0.58,0.02-1.76v-1.55
			c-0.29,0.13-0.58,0.27-0.89,0.4c-0.2,0.09-0.29,0.15-0.34,0.2c-0.04,0.04-0.1,0.08-0.14,0.08c-0.04,0-0.08-0.02-0.11-0.08
			c-0.09-0.17-0.17-0.35-0.25-0.57c0.26-0.06,0.55-0.15,0.89-0.28c0.28-0.11,0.56-0.22,0.84-0.34v-2.33h-0.87
			c-0.07,0.44-0.16,0.89-0.29,1.29c-0.03,0.11-0.04,0.15-0.08,0.15c-0.04,0-0.08-0.02-0.16-0.06c-0.1-0.04-0.26-0.08-0.36-0.1
			c0.34-0.91,0.46-1.82,0.5-2.59c0.02-0.2,0.01-0.38-0.01-0.56c0.17,0.02,0.39,0.05,0.54,0.08c0.09,0.02,0.12,0.06,0.12,0.09
			c0,0.05-0.01,0.07-0.04,0.13c-0.03,0.07-0.05,0.15-0.06,0.27l-0.08,0.77h0.79v-0.81c0-0.71-0.01-0.98-0.07-1.37
			c0.25,0.01,0.44,0.02,0.64,0.05c0.07,0.01,0.11,0.04,0.11,0.09c0,0.06-0.02,0.1-0.04,0.18c-0.04,0.12-0.06,0.37-0.06,1.03v0.83
			H208c0.7,0,0.91-0.02,0.96-0.02c0.07,0,0.08,0.01,0.08,0.07V113.77z M212.98,113.11c0.84,0,1.11-0.02,1.16-0.02
			c0.08,0,0.1,0.03,0.1,0.1c-0.01,0.23-0.02,0.46-0.02,0.68c-0.02,2.03-0.11,3.32-0.32,4.62c-0.16,0.99-0.48,1.52-1.28,1.52
			c-0.23,0-0.57-0.02-0.89-0.05c-0.19-0.02-0.19-0.02-0.23-0.23c-0.04-0.19-0.08-0.32-0.15-0.45c0.46,0.08,0.82,0.12,1.18,0.12
			c0.51,0,0.7-0.45,0.8-1.1c0.19-1.23,0.3-2.42,0.32-4.67h-0.52c-0.66,2.8-1.68,4.55-3.58,5.94c-0.07,0.05-0.12,0.08-0.15,0.08
			c-0.04,0-0.08-0.04-0.14-0.12c-0.11-0.14-0.22-0.23-0.34-0.3c1.95-1.32,3.05-3.02,3.63-5.6h-0.97c-0.52,1.76-1.2,2.74-2.29,3.65
			c-0.07,0.06-0.11,0.09-0.14,0.09c-0.04,0-0.08-0.04-0.14-0.11c-0.1-0.12-0.23-0.22-0.34-0.27c1.09-0.78,1.91-1.83,2.33-3.36h-0.92
			c-0.23,0.39-0.5,0.77-0.83,1.16c-0.07,0.08-0.1,0.12-0.14,0.12s-0.07-0.03-0.14-0.1c-0.11-0.11-0.2-0.17-0.32-0.22
			c0.82-0.86,1.29-1.76,1.57-2.64c0.1-0.32,0.16-0.57,0.18-0.84c0.23,0.04,0.39,0.08,0.58,0.13c0.07,0.02,0.11,0.05,0.11,0.1
			c0,0.06-0.03,0.1-0.08,0.16c-0.07,0.08-0.12,0.24-0.2,0.47c-0.13,0.38-0.27,0.76-0.46,1.14H212.98z"/>
		<path class="st0" d="M221.17,113.08c-0.18,1.69-0.69,3.35-1.32,4.37c-0.43,0.73-0.88,1.03-1.47,1.03c-0.75,0-1.46-0.82-1.46-2.27
			c0-0.92,0.42-1.9,1.16-2.59c0.74-0.69,1.74-1.11,3-1.11c2.24,0,3.57,1.31,3.57,3.22c0,1.63-1.01,2.94-3.18,3.49
			c-0.12,0.03-0.19,0.01-0.26-0.11c-0.06-0.1-0.19-0.25-0.39-0.37c1.98-0.39,3.12-1.46,3.12-3.13c0-1.48-1.15-2.53-2.58-2.53H221.17
			z M218.53,114.04c-0.67,0.66-0.96,1.48-0.96,2.16c0,1.09,0.45,1.56,0.81,1.56c0.34,0,0.64-0.22,0.93-0.73
			c0.51-0.9,1.04-2.45,1.17-3.91C219.69,113.22,219,113.56,218.53,114.04z"/>
		<path class="st0" d="M230.05,114.44c0.12-0.05,0.13-0.05,0.17,0.02c0.32,0.57,0.54,1.11,0.74,1.71c0.02,0.08,0.02,0.11-0.11,0.15
			l-0.23,0.07c-0.12,0.04-0.14,0.04-0.16-0.04c-0.06-0.19-0.12-0.37-0.19-0.55l-0.9,0.09v2.67c0,1.09,0.02,1.41,0.02,1.46
			c0,0.07-0.01,0.07-0.08,0.07h-0.45c-0.07,0-0.08,0-0.08-0.07c0-0.06,0.02-0.37,0.02-1.46v-2.61c-0.37,0.03-0.73,0.05-1.06,0.07
			c-0.22,0.01-0.32,0.06-0.37,0.09c-0.03,0.02-0.08,0.04-0.12,0.04c-0.05,0-0.08-0.05-0.1-0.13l-0.1-0.55
			c0.23,0.02,0.42,0.03,0.65,0.02h0.13c0.27-0.34,0.51-0.69,0.75-1.04c-0.47-0.56-0.92-1.05-1.45-1.53
			c-0.07-0.06-0.06-0.09,0.01-0.19l0.15-0.22c0.07-0.1,0.09-0.1,0.15-0.04l0.4,0.39c0.27-0.41,0.52-0.82,0.73-1.25
			c0.12-0.25,0.17-0.39,0.2-0.56c0.18,0.07,0.38,0.16,0.54,0.24c0.08,0.04,0.1,0.08,0.1,0.13s-0.03,0.08-0.08,0.11
			c-0.07,0.05-0.11,0.1-0.17,0.21c-0.35,0.6-0.62,1.01-0.95,1.48l0.68,0.76c0.26-0.41,0.51-0.82,0.76-1.25
			c0.15-0.26,0.24-0.47,0.3-0.68c0.21,0.09,0.39,0.18,0.53,0.27c0.07,0.04,0.1,0.08,0.1,0.12c0,0.06-0.03,0.09-0.09,0.13
			c-0.1,0.07-0.18,0.19-0.35,0.46c-0.56,0.87-1.12,1.7-1.67,2.43c0.52-0.03,1.06-0.07,1.63-0.12c-0.1-0.24-0.21-0.47-0.33-0.7
			c-0.03-0.06-0.02-0.08,0.1-0.13L230.05,114.44z M228.2,117c-0.03,0.05-0.07,0.18-0.1,0.36c-0.08,0.54-0.2,1.19-0.43,1.86
			c-0.03,0.1-0.05,0.13-0.09,0.13c-0.03,0-0.07-0.02-0.13-0.06c-0.12-0.08-0.24-0.12-0.36-0.15c0.29-0.72,0.42-1.36,0.48-1.88
			c0.03-0.24,0.04-0.4,0.02-0.59c0.19,0.03,0.42,0.08,0.51,0.11c0.1,0.03,0.15,0.06,0.15,0.1S228.22,116.96,228.2,117z
			 M230.25,116.67c0.1-0.03,0.11-0.02,0.14,0.05c0.2,0.52,0.4,1.34,0.5,1.89c0.02,0.09,0.01,0.1-0.11,0.14l-0.24,0.07
			c-0.12,0.04-0.14,0.04-0.15-0.04c-0.11-0.61-0.29-1.41-0.46-1.92c-0.03-0.08-0.01-0.09,0.11-0.13L230.25,116.67z M234.33,111.58
			c0.92,0,1.22-0.02,1.28-0.02c0.07,0,0.08,0.02,0.08,0.1c-0.01,0.2-0.02,0.4-0.03,0.6c-0.04,1.26-0.13,2.11-0.3,2.46
			c-0.15,0.36-0.49,0.54-0.88,0.54c-0.29,0-0.53-0.01-0.74-0.03c-0.19-0.02-0.19-0.04-0.22-0.23c-0.03-0.13-0.08-0.28-0.14-0.39
			c0.34,0.05,0.67,0.08,0.97,0.08c0.25,0,0.38-0.11,0.47-0.26c0.14-0.26,0.23-1.27,0.26-2.31h-1.79c-0.09,1.56-0.65,2.51-1.92,3.24
			c-0.07,0.04-0.11,0.07-0.15,0.07s-0.07-0.04-0.14-0.13c-0.1-0.13-0.21-0.23-0.33-0.29c1.24-0.6,1.86-1.37,1.95-2.89h-0.37
			c-0.9,0-1.2,0.02-1.26,0.02c-0.07,0-0.08-0.01-0.08-0.08v-0.41c0-0.08,0.01-0.09,0.08-0.09c0.06,0,0.36,0.02,1.26,0.02H234.33z
			 M235.43,118.12c0,1.49,0.02,1.73,0.02,1.78c0,0.07-0.01,0.08-0.09,0.08h-0.44c-0.07,0-0.08-0.01-0.08-0.08v-0.48h-2.83v0.54
			c0,0.07-0.01,0.08-0.08,0.08h-0.44c-0.07,0-0.08-0.01-0.08-0.08c0-0.05,0.02-0.3,0.02-1.81v-0.86c0-0.87-0.02-1.14-0.02-1.19
			c0-0.07,0.01-0.08,0.08-0.08c0.06,0,0.34,0.02,1.18,0.02h1.52c0.83,0,1.12-0.02,1.17-0.02c0.08,0,0.09,0.01,0.09,0.08
			c0,0.05-0.02,0.32-0.02,1.05V118.12z M234.84,116.58h-2.83v2.3h2.83V116.58z"/>
		<path class="st0" d="M246.65,115.38c-0.06,0.11-0.08,0.15-0.13,0.15c-0.03,0-0.08-0.02-0.15-0.05c-1.87-0.85-3.1-2.01-4.11-3.58
			c-0.96,1.67-2.11,2.7-3.9,3.65c-0.08,0.04-0.12,0.07-0.16,0.07s-0.07-0.05-0.13-0.15c-0.09-0.17-0.18-0.28-0.3-0.38
			c1.81-0.82,3.17-2.03,3.95-3.5c0.13-0.25,0.19-0.39,0.25-0.61c0.24,0.03,0.41,0.06,0.62,0.12c0.09,0.03,0.14,0.07,0.14,0.13
			c0,0.03-0.02,0.07-0.07,0.1c-0.04,0.02-0.07,0.04-0.09,0.07c1.11,1.69,2.39,2.79,4.37,3.56
			C246.83,115.08,246.74,115.21,246.65,115.38z M241.25,115.02c-0.03,0.11-0.06,0.31-0.06,0.94c0,1.33-0.23,2.04-0.64,2.66
			c-0.38,0.56-0.92,1.02-1.78,1.43c-0.07,0.04-0.12,0.06-0.15,0.06c-0.05,0-0.07-0.05-0.14-0.15c-0.08-0.12-0.21-0.27-0.35-0.37
			c0.97-0.35,1.57-0.82,1.9-1.35c0.34-0.54,0.53-1.18,0.53-2.29c0-0.47,0-0.89-0.07-1.26c0.23,0.01,0.49,0.03,0.68,0.05
			c0.07,0.01,0.12,0.04,0.12,0.09C241.29,114.89,241.27,114.93,241.25,115.02z M243.38,116.15c0-0.59-0.01-1.12-0.07-1.49
			c0.26,0.01,0.5,0.03,0.68,0.06c0.06,0.01,0.11,0.03,0.11,0.09c0,0.05-0.04,0.13-0.05,0.19c-0.02,0.1-0.05,0.59-0.05,1.14v2.53
			c0,0.85,0.02,1.22,0.02,1.28c0,0.06-0.01,0.07-0.08,0.07h-0.5c-0.07,0-0.08-0.01-0.08-0.07c0-0.06,0.02-0.43,0.02-1.28V116.15z"/>
		<path class="st0" d="M255.49,113.51c-0.44,1.62-1.07,2.82-1.99,3.75c0.98,0.83,2.28,1.56,4,2.1c-0.12,0.12-0.22,0.3-0.3,0.46
			c-0.06,0.12-0.08,0.16-0.14,0.16c-0.03,0-0.08-0.01-0.15-0.04c-1.66-0.63-2.92-1.4-3.87-2.24c-0.97,0.86-2.22,1.59-3.85,2.2
			c-0.07,0.02-0.12,0.04-0.15,0.04c-0.06,0-0.08-0.04-0.14-0.15c-0.08-0.15-0.19-0.31-0.31-0.4c1.82-0.61,3.03-1.29,3.99-2.13
			c-0.96-0.99-1.57-2.16-2.04-3.75h-0.35c-0.95,0-1.27,0.02-1.32,0.02c-0.07,0-0.08-0.01-0.08-0.08v-0.46
			c0-0.07,0.01-0.08,0.08-0.08c0.05,0,0.37,0.02,1.32,0.02h2.49v-0.68c0-0.51-0.01-0.82-0.08-1.1c0.25,0.01,0.48,0.02,0.7,0.05
			c0.07,0.01,0.12,0.05,0.12,0.09c0,0.07-0.03,0.12-0.06,0.19c-0.05,0.1-0.05,0.24-0.05,0.76v0.69h2.64c0.95,0,1.27-0.02,1.32-0.02
			c0.08,0,0.09,0.01,0.09,0.08v0.46c0,0.07-0.01,0.08-0.09,0.08c-0.05,0-0.37-0.02-1.32-0.02H255.49z M251.17,113.51
			c0.43,1.39,0.96,2.42,1.88,3.33c0.87-0.88,1.4-1.92,1.77-3.33H251.17z"/>
		<path class="st0" d="M262.55,112.61c0.08-0.35,0.1-0.6,0.09-0.96c0.31,0.08,0.52,0.15,0.78,0.27c0.11,0.05,0.14,0.17,0.04,0.26
			c-0.08,0.08-0.12,0.16-0.17,0.33c-0.15,0.49-0.28,0.96-0.43,1.45c0.32-0.04,0.73-0.07,0.97-0.07c0.87,0,1.3,0.44,1.3,1.64
			c0,1.29-0.22,2.48-0.55,3.2c-0.25,0.55-0.65,0.79-1.14,0.79c-0.41,0-0.77-0.07-1.02-0.18c-0.08-0.03-0.12-0.08-0.12-0.17
			c-0.01-0.17-0.03-0.39-0.12-0.6c0.44,0.19,0.81,0.28,1.16,0.28c0.29,0,0.48-0.1,0.67-0.52c0.25-0.57,0.45-1.58,0.45-2.81
			c0-0.78-0.15-1.06-0.69-1.06c-0.31,0-0.73,0.05-1.08,0.11c-0.58,1.73-1.23,3.29-2.04,4.73c-0.04,0.07-0.1,0.08-0.17,0.05
			c-0.1-0.05-0.29-0.18-0.4-0.27c-0.06-0.05-0.05-0.1-0.02-0.16c0.84-1.41,1.43-2.79,1.92-4.26c-0.41,0.06-0.82,0.13-1.32,0.22
			c-0.18,0.03-0.36,0.08-0.44,0.13c-0.11,0.07-0.2,0.07-0.26-0.05c-0.08-0.17-0.16-0.4-0.23-0.68c0.36,0.01,0.75-0.01,1.04-0.05
			c0.55-0.06,0.94-0.12,1.41-0.19C262.31,113.57,262.42,113.17,262.55,112.61z M266.17,113.43c0.06-0.02,0.1-0.01,0.15,0.04
			c0.7,0.6,1.28,1.47,1.61,2.42c0.02,0.07,0.03,0.12-0.03,0.17c-0.1,0.09-0.29,0.21-0.41,0.27c-0.08,0.05-0.15,0.04-0.17-0.06
			c-0.34-1.02-0.84-1.87-1.6-2.53C265.86,113.63,266.02,113.52,266.17,113.43z M266.38,111.89c0.04-0.03,0.06-0.02,0.1,0.01
			c0.4,0.28,0.84,0.77,1.13,1.21c0.03,0.04,0.02,0.08-0.02,0.11l-0.29,0.24c-0.05,0.04-0.1,0.03-0.13-0.02
			c-0.29-0.49-0.71-0.96-1.16-1.28L266.38,111.89z M267.21,111.24c0.04-0.03,0.07-0.04,0.11-0.01c0.4,0.31,0.85,0.75,1.14,1.17
			c0.03,0.05,0.02,0.08-0.03,0.12l-0.27,0.24c-0.04,0.04-0.08,0.04-0.12-0.02c-0.25-0.41-0.68-0.9-1.15-1.25L267.21,111.24z"/>
		<path class="st0" d="M276.73,114.55c0.02-0.23,0.01-0.43-0.03-0.64c0.33,0.07,0.6,0.17,0.75,0.28c0.08,0.05,0.09,0.13,0.05,0.2
			c-0.05,0.07-0.09,0.15-0.11,0.3c-0.07,0.45-0.19,1.05-0.31,1.52c0.57,0.29,1.16,0.64,1.69,1.03c0.06,0.03,0.06,0.07,0.04,0.13
			c-0.07,0.14-0.18,0.37-0.26,0.5c-0.04,0.06-0.09,0.04-0.13,0c-0.56-0.46-1.05-0.77-1.53-1.03c-0.5,1.3-1.05,2.11-2.1,2.85
			c-0.12,0.09-0.16,0.1-0.25,0.04c-0.14-0.13-0.3-0.2-0.51-0.25c1.26-0.87,1.83-1.69,2.26-2.9c-0.71-0.35-1.53-0.62-2.46-0.71
			c-0.45,0.97-0.76,1.54-1.1,1.91c-0.39,0.45-0.79,0.64-1.23,0.64c-0.5,0-1.01-0.35-1.01-1.13c0-1.11,1.24-2,2.91-2.01
			c0.38-0.92,0.7-1.7,1.03-2.78c-0.69,0.07-1.41,0.15-1.76,0.2c-0.24,0.03-0.36,0.07-0.44,0.09c-0.04,0.02-0.08,0.03-0.12,0.03
			c-0.06,0-0.09-0.02-0.12-0.06c-0.07-0.14-0.14-0.39-0.21-0.72c0.27,0.06,0.48,0.07,0.87,0.05c0.44-0.02,0.98-0.07,1.53-0.14
			c0.25-0.04,0.37-0.07,0.46-0.14c0.07-0.06,0.16-0.05,0.21-0.02c0.16,0.1,0.32,0.24,0.43,0.38c0.08,0.1,0.08,0.17,0,0.24
			c-0.1,0.1-0.15,0.25-0.24,0.48c-0.33,0.92-0.64,1.63-0.97,2.43c0.84,0.08,1.65,0.32,2.43,0.64
			C276.61,115.45,276.69,114.99,276.73,114.55z M271.08,117.23c0,0.33,0.17,0.56,0.45,0.56c0.24,0,0.52-0.13,0.81-0.49
			c0.21-0.25,0.53-0.73,0.85-1.46C271.99,115.88,271.08,116.51,271.08,117.23z"/>
		<path class="st0" d="M283.95,111.58c0.11,0.04,0.16,0.09,0.16,0.16c0,0.04-0.03,0.09-0.05,0.13c-0.05,0.08-0.06,0.17-0.08,0.39
			c-0.04,0.46-0.06,0.83-0.08,1.34c0.15,0.08,0.25,0.14,0.35,0.23c0.06,0.05,0.07,0.11,0.01,0.2c-0.14,0.23-0.27,0.47-0.42,0.77
			c-0.01,0.13-0.01,0.24-0.02,0.38c0.41-0.47,0.76-0.83,1.13-1.17c0.61-0.59,1.19-0.99,1.77-0.99c0.69,0,1.07,0.45,1.07,1.25
			c0,0.44-0.03,1.1-0.09,1.86c-0.05,0.77-0.1,1.32-0.1,1.65c0,0.63,0.17,0.78,0.5,0.78c0.28,0,0.56-0.12,0.83-0.38
			c0.17-0.17,0.39-0.44,0.61-0.95c0.07,0.26,0.13,0.39,0.23,0.51c0.07,0.1,0.09,0.17,0,0.32c-0.46,0.74-1.03,1.14-1.72,1.14
			c-0.71,0-1.1-0.38-1.1-1.31c0-0.45,0.03-1.02,0.08-1.71c0.05-0.72,0.08-1.23,0.08-1.72c0-0.55-0.14-0.86-0.46-0.86
			c-0.36,0-0.78,0.24-1.33,0.74c-0.45,0.42-0.87,0.86-1.51,1.58c0,1.04,0.03,2.37,0.04,3.77c0,0.06-0.02,0.09-0.1,0.1
			c-0.1,0.01-0.32,0.02-0.48,0.02c-0.05,0-0.08-0.03-0.08-0.11c0-1.47-0.01-2.51,0.02-3.36c-0.48,0.68-0.95,1.39-1.47,2.17
			c-0.06,0.09-0.09,0.1-0.17,0.05c-0.1-0.07-0.29-0.23-0.37-0.34c-0.06-0.05-0.03-0.11,0.02-0.18c0.81-1.05,1.4-1.87,1.99-2.78
			c0.02-0.35,0.02-0.62,0.03-0.87c-0.5,0.15-0.96,0.3-1.37,0.47c-0.11,0.04-0.2,0.13-0.26,0.13c-0.06,0-0.11-0.04-0.15-0.1
			c-0.11-0.15-0.19-0.33-0.29-0.58c0.27-0.01,0.48-0.05,0.7-0.1c0.36-0.1,0.79-0.22,1.4-0.42c0.01-0.46,0.02-0.9,0.03-1.35
			c0-0.32,0-0.66-0.07-0.99C283.5,111.47,283.78,111.52,283.95,111.58z"/>
		<path class="st0" d="M294.77,115.64c0.72-0.47,1.43-0.71,2.15-0.71c1.44,0,2.33,0.89,2.33,2.19c0,1.49-1.18,2.57-3.3,2.57
			c-1.2,0-1.74-0.54-1.74-1.18c0-0.52,0.46-1.02,1.17-1.02c0.9,0,1.51,0.58,1.7,1.43c0.86-0.28,1.46-0.84,1.46-1.82
			c0-1.02-0.78-1.64-1.73-1.64c-0.99,0-1.98,0.51-2.75,1.13c-0.32,0.25-0.58,0.52-0.88,0.82c-0.08,0.08-0.13,0.09-0.2,0.02
			c-0.12-0.12-0.27-0.27-0.37-0.4c-0.04-0.05-0.03-0.09,0.04-0.15c0.79-0.69,1.3-1.2,2.26-2.23c0.58-0.63,1.18-1.27,1.95-2.18
			c-0.83,0.13-1.61,0.28-2.5,0.45c-0.13,0.02-0.25,0.05-0.35,0.09c-0.07,0.03-0.15,0.05-0.19,0.05c-0.07,0-0.12-0.04-0.16-0.12
			c-0.09-0.18-0.16-0.37-0.24-0.69c0.33,0.04,0.61,0.04,0.88,0.01c0.79-0.08,1.61-0.19,2.49-0.36c0.12-0.02,0.24-0.05,0.31-0.09
			c0.04-0.03,0.1-0.07,0.14-0.07c0.05,0,0.1,0.02,0.18,0.08c0.19,0.15,0.34,0.3,0.43,0.42c0.05,0.06,0.07,0.12,0.07,0.17
			c0,0.08-0.05,0.15-0.15,0.19c-0.13,0.04-0.24,0.11-0.47,0.35c-0.89,0.94-1.56,1.64-2.56,2.66L294.77,115.64z M295.4,118.03
			c-0.32,0-0.61,0.16-0.61,0.47c0,0.33,0.36,0.61,1.03,0.61c0.22,0,0.42-0.01,0.65-0.05C296.34,118.49,295.97,118.03,295.4,118.03z"
			/>
		<path class="st0" d="M309.37,113.42c0.04-0.01,0.07,0,0.09,0.04c0.06,0.14,0.13,0.37,0.16,0.51c0.01,0.07-0.02,0.09-0.06,0.1
			c-0.93,0.28-1.76,0.41-2.63,0.49c0.01,1,0.09,1.83,0.19,2.71c0.94,0.26,1.97,0.72,2.85,1.29c0.06,0.04,0.07,0.07,0.05,0.13
			c-0.05,0.14-0.2,0.38-0.3,0.49c-0.04,0.04-0.06,0.05-0.11,0.02c-0.89-0.63-1.64-0.99-2.46-1.27c0,0.06,0,0.16-0.01,0.28
			c-0.01,0.83-0.67,1.45-1.8,1.45c-1.23,0-1.91-0.51-1.91-1.25c0-0.8,0.88-1.33,1.94-1.33c0.39,0,0.76,0.02,1.08,0.07
			c-0.1-0.94-0.17-2.1-0.18-3.25c0-0.44-0.01-1.06-0.01-1.53c0-0.28-0.02-0.57-0.09-0.82c0.27,0.02,0.54,0.06,0.79,0.13
			c0.12,0.04,0.13,0.12,0.08,0.22c-0.06,0.13-0.08,0.24-0.1,0.52c-0.02,0.32-0.02,0.85-0.02,1.49
			C307.73,113.85,308.57,113.68,309.37,113.42z M305.35,117.65c-0.85,0-1.33,0.33-1.33,0.74c0,0.44,0.47,0.65,1.24,0.65
			c0.76,0,1.22-0.37,1.22-1.04c0-0.1,0-0.16-0.01-0.23C306.08,117.69,305.71,117.65,305.35,117.65z"/>
	</g>
	<g>
		<path d="M79.44,113.02c-0.79,0-1.38,0.04-1.86,0.09c-0.11,0.01-0.15-0.03-0.17-0.11c-0.04-0.17-0.09-0.48-0.11-0.69
			c0.61,0.06,1.2,0.07,2.06,0.07h4.16c0.56,0,0.66-0.03,0.75-0.06c0.05-0.02,0.11-0.04,0.15-0.04c0.05,0,0.1,0.03,0.15,0.07
			c0.14,0.12,0.26,0.24,0.37,0.39c0.08,0.1,0.07,0.21-0.05,0.29c-0.09,0.05-0.16,0.16-0.22,0.25c-0.46,0.69-1.14,1.39-1.91,1.97
			c-0.08,0.06-0.18,0.06-0.26-0.01c-0.15-0.12-0.31-0.19-0.52-0.25c0.86-0.55,1.55-1.21,2.03-1.97H79.44z M80.1,117.16
			c0.37-0.77,0.5-1.57,0.5-2.46c0-0.33-0.03-0.56-0.09-0.83c0.29,0.02,0.6,0.07,0.79,0.14c0.16,0.06,0.16,0.17,0.1,0.29
			c-0.05,0.09-0.08,0.21-0.08,0.49c0,0.85-0.16,1.84-0.57,2.66c-0.39,0.78-1.09,1.48-1.88,1.98c-0.1,0.06-0.21,0.08-0.3,0
			c-0.14-0.13-0.32-0.23-0.54-0.31C79.02,118.61,79.72,117.96,80.1,117.16z"/>
		<path d="M92.66,117.68c0,0.6,0.01,1.17,0.03,1.81c0.01,0.09-0.02,0.12-0.1,0.12c-0.18,0.01-0.4,0.01-0.58,0
			c-0.08,0-0.1-0.03-0.1-0.12c0.02-0.6,0.04-1.2,0.04-1.78v-2.96c-1.05,0.93-2.03,1.61-3.14,2.26c-0.09,0.05-0.16,0.03-0.23-0.04
			c-0.13-0.13-0.31-0.23-0.5-0.32c1.24-0.68,2.28-1.4,3.11-2.11c0.76-0.65,1.47-1.36,1.94-1.93c0.42-0.51,0.6-0.81,0.69-1.13
			c0.27,0.14,0.54,0.3,0.69,0.45c0.1,0.1,0.08,0.22-0.04,0.28c-0.12,0.06-0.31,0.24-0.56,0.53c-0.42,0.51-0.78,0.91-1.25,1.38
			V117.68z"/>
		<path d="M104.78,113.8h-3.63c-0.59,0-1.03,0.02-1.45,0.05c-0.1,0-0.13-0.03-0.14-0.13c-0.02-0.17-0.03-0.46-0.03-0.65
			c0.59,0.05,1.02,0.06,1.61,0.06h2.54c0.55,0,1.13-0.02,1.68-0.03c0.13,0,0.17,0.03,0.16,0.15c-0.01,0.47-0.02,0.97-0.02,1.48v2.17
			c0,0.6,0.02,1.28,0.03,1.69c0,0.1-0.02,0.12-0.12,0.12c-0.15,0.01-0.35,0.01-0.49,0c-0.12,0-0.14-0.01-0.14-0.13v-0.44h-3.63
			c-0.57,0-1.09,0.02-1.56,0.04c-0.08,0.01-0.1-0.02-0.11-0.12c-0.02-0.17-0.03-0.41-0.03-0.64c0.51,0.04,1.06,0.05,1.7,0.05h3.63
			V113.8z"/>
		<path d="M110.37,112.63c0.07-0.07,0.12-0.06,0.18-0.02c0.56,0.31,1.22,0.78,1.8,1.33c0.07,0.07,0.08,0.11,0.03,0.19
			c-0.08,0.12-0.26,0.35-0.34,0.43c-0.06,0.07-0.09,0.08-0.16,0.01c-0.59-0.58-1.25-1.09-1.9-1.48
			C110.11,112.93,110.26,112.75,110.37,112.63z M111.27,117.93c1.08-0.57,1.96-1.11,2.89-1.86c1.01-0.83,1.84-1.57,2.7-2.69
			c0.04,0.28,0.1,0.47,0.17,0.66c0.06,0.13,0.05,0.21-0.07,0.35c-0.67,0.79-1.55,1.59-2.43,2.3c-0.85,0.68-1.85,1.32-3,1.95
			c-0.27,0.16-0.46,0.31-0.55,0.39c-0.1,0.09-0.18,0.09-0.27-0.01c-0.15-0.16-0.33-0.4-0.49-0.68
			C110.61,118.23,110.91,118.11,111.27,117.93z"/>
		<path d="M124.92,117.94c0,0.08-0.02,0.11-0.11,0.12c-0.1,0.02-0.3,0.04-0.43,0.04c-0.06,0-0.09-0.05-0.09-0.12
			c0-0.44,0-0.93,0.01-1.44c-1.1,0.55-1.64,1.06-1.64,1.66c0,0.59,0.55,0.83,1.71,0.83c0.83,0,1.65-0.1,2.38-0.2
			c0.05-0.01,0.09,0,0.11,0.07c0.03,0.15,0.06,0.35,0.06,0.49c0,0.09-0.04,0.13-0.08,0.14c-0.71,0.09-1.53,0.14-2.47,0.14
			c-1.4,0-2.31-0.36-2.31-1.43c0-0.84,0.55-1.52,2.21-2.33c-0.02-0.68-0.25-0.95-0.84-0.94c-0.43,0.01-1,0.26-1.64,0.81
			c-0.36,0.34-0.6,0.6-0.95,0.97c-0.06,0.07-0.1,0.07-0.15,0.02c-0.1-0.09-0.27-0.28-0.35-0.39c-0.03-0.06-0.04-0.08,0.02-0.14
			c0.91-0.79,1.74-1.76,2.32-2.78c-0.62,0.04-1.23,0.04-1.86,0.02c-0.08,0-0.1-0.03-0.11-0.1c-0.02-0.12-0.05-0.34-0.06-0.5
			c0.73,0.04,1.51,0.04,2.32-0.01c0.12-0.3,0.26-0.63,0.36-1c0.05-0.17,0.09-0.32,0.08-0.54c0.29,0.05,0.58,0.14,0.75,0.22
			c0.1,0.05,0.1,0.15,0.02,0.22c-0.04,0.04-0.1,0.11-0.18,0.28c-0.12,0.25-0.21,0.46-0.34,0.76c0.7-0.07,1.42-0.18,2.11-0.33
			c0.08-0.02,0.1-0.02,0.12,0.04c0.02,0.14,0.05,0.28,0.06,0.44c0,0.07-0.02,0.1-0.13,0.12c-0.79,0.14-1.64,0.25-2.44,0.33
			c-0.34,0.61-0.66,1.08-1.02,1.49l0.01,0.02c0.42-0.3,0.86-0.43,1.25-0.43c0.74,0,1.18,0.39,1.26,1.17
			c0.49-0.22,1.06-0.48,1.56-0.72c0.29-0.14,0.55-0.3,0.76-0.51c0.23,0.2,0.43,0.46,0.49,0.58c0.08,0.15,0,0.21-0.1,0.23
			c-0.12,0.02-0.32,0.07-0.55,0.16c-0.76,0.32-1.39,0.55-2.12,0.86V117.94z"/>
		<path d="M136.77,112.9c0.34-0.01,0.45-0.04,0.53-0.11c0.09-0.08,0.17-0.08,0.27-0.02c0.13,0.08,0.31,0.26,0.43,0.4
			c0.08,0.1,0.06,0.19-0.04,0.27c-0.09,0.07-0.16,0.14-0.24,0.3c-0.43,0.93-0.99,1.87-1.59,2.65c0.4,0.32,0.81,0.68,1.2,1.1
			c0.06,0.06,0.03,0.11-0.01,0.18c-0.07,0.12-0.22,0.26-0.33,0.34c-0.08,0.06-0.11,0.05-0.16-0.01c-0.34-0.39-0.74-0.78-1.12-1.1
			c-1.03,1.17-2.13,2-3.47,2.73c-0.11,0.06-0.18,0.08-0.27-0.01c-0.16-0.14-0.35-0.24-0.56-0.32c1.52-0.76,2.75-1.65,3.76-2.81
			c-0.42-0.34-0.98-0.7-1.57-1.02c0.11-0.15,0.22-0.28,0.35-0.4c0.05-0.05,0.08-0.07,0.16-0.03c0.45,0.23,1.01,0.6,1.49,0.94
			c0.56-0.71,1.11-1.64,1.46-2.49l-2.95,0.06c-0.69,0.94-1.23,1.54-2.18,2.32c-0.1,0.08-0.17,0.1-0.26,0.03
			c-0.13-0.11-0.29-0.2-0.48-0.28c1.38-1.05,2.26-2.15,2.86-3.23c0.23-0.41,0.32-0.66,0.4-0.99c0.24,0.07,0.5,0.2,0.71,0.34
			c0.12,0.08,0.09,0.2-0.02,0.28c-0.12,0.09-0.22,0.22-0.29,0.34c-0.11,0.19-0.2,0.34-0.36,0.58L136.77,112.9z"/>
		<path d="M143.07,114.45c0.08-0.04,0.12-0.02,0.18,0.05c0.33,0.42,0.6,0.86,0.82,1.4c0.04,0.1,0.04,0.12-0.05,0.18
			c-0.13,0.08-0.25,0.13-0.38,0.18c-0.09,0.04-0.13,0-0.16-0.08c-0.21-0.5-0.51-1.06-0.86-1.49
			C142.8,114.59,142.95,114.51,143.07,114.45z M148.4,114.46c0.09,0.07,0.1,0.16,0.01,0.24c-0.1,0.09-0.17,0.22-0.29,0.48
			c-0.43,0.98-0.91,1.87-1.47,2.58c-0.62,0.8-1.2,1.35-2.02,1.9c-0.07,0.05-0.16,0.07-0.22,0.01c-0.15-0.12-0.31-0.2-0.52-0.25
			c1.04-0.68,1.62-1.2,2.24-1.99c0.54-0.69,1.04-1.6,1.36-2.46c0.09-0.26,0.13-0.48,0.17-0.82
			C147.91,114.22,148.24,114.34,148.4,114.46z M145.02,113.99c0.07-0.03,0.12-0.02,0.17,0.06c0.28,0.38,0.56,0.89,0.75,1.39
			c0.03,0.08,0.01,0.12-0.07,0.16c-0.11,0.06-0.25,0.13-0.4,0.19c-0.07,0.03-0.1,0-0.14-0.09c-0.21-0.55-0.43-1.02-0.77-1.48
			C144.77,114.11,144.9,114.04,145.02,113.99z"/>
		<path d="M154.62,113.5c-0.59,0-1.14,0.02-1.68,0.06c-0.12,0.01-0.16-0.03-0.18-0.16c-0.01-0.14-0.04-0.45-0.05-0.62
			c0.62,0.06,1.18,0.08,1.92,0.08h3.54c0.29,0,0.39-0.03,0.5-0.09c0.08-0.05,0.18-0.04,0.26,0.01c0.17,0.12,0.33,0.27,0.45,0.41
			c0.08,0.11,0.07,0.22-0.03,0.31c-0.09,0.08-0.15,0.18-0.22,0.34c-0.48,1.27-1.18,2.4-1.96,3.28c-0.81,0.91-1.73,1.73-2.97,2.41
			c-0.12,0.08-0.25,0.08-0.34-0.02c-0.12-0.12-0.31-0.25-0.52-0.34c1.53-0.76,2.39-1.51,3.23-2.47c0.75-0.84,1.46-1.95,1.88-3.2
			H154.62z M161.15,111.9c0,0.56-0.45,1.01-1.01,1.01s-1.01-0.45-1.01-1.01c0-0.56,0.45-1.01,1.01-1.01S161.15,111.34,161.15,111.9z
			 M159.51,111.9c0,0.35,0.28,0.63,0.63,0.63c0.35,0,0.63-0.28,0.63-0.63c0-0.35-0.28-0.63-0.63-0.63
			C159.79,111.27,159.51,111.55,159.51,111.9z"/>
		<path d="M171.22,113.48c0,0.09-0.03,0.1-0.13,0.1c-1.07-0.03-2.05-0.04-3.18,0c0,0.63,0,1.32,0.01,1.99
			c0.08,0.31,0.12,0.67,0.12,1.05c0,1.26-0.54,2.33-1.95,3.09c-0.1,0.06-0.18,0.09-0.23,0.09c-0.06,0-0.12-0.03-0.18-0.08
			c-0.11-0.1-0.29-0.22-0.46-0.28c1.43-0.59,2.09-1.51,2.18-2.52c-0.22,0.38-0.65,0.57-1.1,0.57c-0.69,0-1.32-0.46-1.32-1.41
			c0-0.85,0.63-1.39,1.37-1.39c0.38,0,0.73,0.11,0.94,0.34c-0.01-0.49-0.01-0.94-0.02-1.41c-1.43,0.08-2.78,0.18-3.73,0.3
			c-0.24,0.03-0.36,0.1-0.44,0.1c-0.06,0-0.1-0.03-0.12-0.1c-0.06-0.13-0.11-0.37-0.16-0.64c0.34,0.02,0.67-0.01,1.26-0.06
			c0.81-0.06,1.84-0.13,3.17-0.21c-0.01-0.41-0.01-0.61-0.02-0.93c-0.01-0.25-0.03-0.41-0.1-0.67c0.3,0.02,0.59,0.07,0.76,0.11
			c0.11,0.03,0.18,0.08,0.18,0.15c0,0.06-0.03,0.11-0.07,0.18c-0.04,0.07-0.06,0.14-0.07,0.27c-0.02,0.22-0.02,0.41-0.02,0.85
			c1.11-0.03,2.09-0.03,3.2-0.03c0.09,0,0.11,0.01,0.11,0.11V113.48z M165.57,116.06c0,0.55,0.36,0.86,0.81,0.86
			c0.56,0,0.91-0.43,0.91-0.88c0-0.5-0.37-0.85-0.89-0.85C165.96,115.19,165.57,115.52,165.57,116.06z"/>
		<path d="M176.52,115.64c0.72-0.47,1.43-0.71,2.15-0.71c1.44,0,2.33,0.89,2.33,2.19c0,1.49-1.18,2.57-3.3,2.57
			c-1.2,0-1.74-0.54-1.74-1.18c0-0.52,0.46-1.02,1.17-1.02c0.9,0,1.51,0.58,1.7,1.43c0.86-0.28,1.46-0.84,1.46-1.82
			c0-1.02-0.78-1.64-1.73-1.64c-0.99,0-1.98,0.51-2.75,1.13c-0.32,0.25-0.58,0.52-0.88,0.82c-0.08,0.08-0.13,0.09-0.2,0.02
			c-0.12-0.12-0.27-0.27-0.37-0.4c-0.04-0.05-0.03-0.09,0.04-0.15c0.79-0.69,1.3-1.2,2.26-2.23c0.58-0.63,1.18-1.27,1.95-2.18
			c-0.83,0.13-1.61,0.28-2.5,0.45c-0.13,0.02-0.25,0.05-0.35,0.09c-0.07,0.03-0.15,0.05-0.19,0.05c-0.07,0-0.12-0.04-0.16-0.12
			c-0.09-0.18-0.16-0.37-0.24-0.69c0.33,0.04,0.61,0.04,0.88,0.01c0.79-0.08,1.61-0.19,2.49-0.36c0.12-0.02,0.24-0.05,0.31-0.09
			c0.04-0.03,0.1-0.07,0.14-0.07c0.05,0,0.1,0.02,0.18,0.08c0.19,0.15,0.34,0.3,0.43,0.42c0.05,0.06,0.07,0.12,0.07,0.17
			c0,0.08-0.05,0.15-0.15,0.19c-0.13,0.04-0.24,0.11-0.47,0.35c-0.89,0.94-1.56,1.64-2.56,2.66L176.52,115.64z M177.15,118.03
			c-0.32,0-0.61,0.16-0.61,0.47c0,0.33,0.36,0.61,1.03,0.61c0.22,0,0.42-0.01,0.65-0.05C178.09,118.49,177.72,118.03,177.15,118.03z
			"/>
		<path d="M187.67,111.65c0.08,0.02,0.12,0.08,0.12,0.13c0,0.1-0.05,0.19-0.05,0.35c0.01,0.22,0.03,0.42,0.06,0.64
			c0.09,0.72,0.21,1.39,0.39,2.02c0.59-0.29,1.19-0.57,1.78-0.9c0.32-0.18,0.44-0.28,0.58-0.46c0.2,0.19,0.38,0.38,0.51,0.56
			c0.08,0.12,0.06,0.26-0.12,0.28c-0.25,0.04-0.58,0.18-0.88,0.32c-0.73,0.34-1.59,0.75-2.27,1.14c-1.01,0.59-1.48,1.11-1.48,1.81
			c0,0.89,0.84,1.11,2.35,1.1c0.93-0.01,1.83-0.1,2.57-0.21c0.09-0.01,0.12,0.01,0.14,0.09c0.03,0.16,0.05,0.35,0.06,0.52
			c0.01,0.09-0.03,0.13-0.14,0.14c-0.82,0.09-1.54,0.14-2.66,0.14c-1.73,0-2.98-0.38-2.98-1.75c0-0.96,0.68-1.7,1.95-2.47
			c-0.22-0.74-0.43-1.77-0.53-2.56c-0.06-0.46-0.11-0.71-0.22-0.98C187.14,111.57,187.46,111.6,187.67,111.65z"/>
		<path d="M199.67,113.4c0,0.07,0,0.08-0.06,0.08c-0.05,0-0.36-0.02-1.28-0.02h-0.7v0.64h0.54c0.85,0,1.13-0.02,1.19-0.02
			c0.07,0,0.08,0.01,0.08,0.08c0,0.05-0.02,0.24-0.02,0.82v0.98c0,0.56,0.02,0.77,0.02,0.82c0,0.07-0.01,0.08-0.08,0.08
			c-0.06,0-0.26-0.02-1.19-0.02h-0.54v0.64h0.53c0.88,0,1.16-0.02,1.22-0.02c0.07,0,0.08,0.01,0.08,0.08v0.36
			c0,0.07-0.01,0.08-0.08,0.08c-0.06,0-0.34-0.02-1.22-0.02h-0.53v0.72c0.62-0.08,1.26-0.18,1.84-0.3c-0.04,0.12-0.06,0.21-0.07,0.3
			c-0.02,0.21-0.02,0.2-0.22,0.24c-1.16,0.23-2.35,0.4-3.57,0.54c-0.2,0.02-0.35,0.06-0.39,0.08c-0.04,0.02-0.08,0.05-0.12,0.05
			c-0.05,0-0.09-0.03-0.12-0.12c-0.04-0.15-0.1-0.37-0.14-0.57c0.34,0.01,0.63,0,1.03-0.03c0.35-0.03,0.77-0.07,1.22-0.12v-0.79
			h-0.7c-0.88,0-1.16,0.02-1.22,0.02c-0.07,0-0.08-0.01-0.08-0.08v-0.36c0-0.07,0.01-0.08,0.08-0.08c0.06,0,0.34,0.02,1.22,0.02h0.7
			v-0.64h-0.49c-0.85,0-1.13,0.02-1.19,0.02c-0.07,0-0.08-0.01-0.08-0.08c0-0.06,0.02-0.26,0.02-0.82v-0.97
			c0-0.58-0.02-0.78-0.02-0.83c0-0.07,0.01-0.08,0.08-0.08c0.06,0,0.34,0.02,1.19,0.02h0.49v-0.64h-0.85
			c-0.91,0-1.22,0.02-1.27,0.02c-0.07,0-0.08-0.01-0.08-0.08v-0.37c0-0.07,0.01-0.08,0.08-0.08c0.05,0,0.36,0.02,1.27,0.02h0.85
			v-0.66c-0.49,0.07-0.98,0.13-1.53,0.18c-0.18,0.01-0.2,0.02-0.26-0.12c-0.06-0.15-0.14-0.26-0.22-0.35
			c1.46-0.09,2.44-0.25,3.44-0.52c0.18-0.05,0.34-0.11,0.46-0.19c0.16,0.12,0.29,0.23,0.39,0.33c0.06,0.06,0.08,0.09,0.08,0.14
			c0,0.06-0.08,0.09-0.17,0.09s-0.24,0.04-0.39,0.07c-0.44,0.11-0.85,0.2-1.26,0.28v0.75h0.7c0.92,0,1.22-0.02,1.27-0.02
			c0.06,0,0.07,0.01,0.07,0.08V113.4z M197.1,114.53h-1.21v0.72h1.21V114.53z M197.1,115.66h-1.21v0.76h1.21V115.66z M198.9,114.53
			h-1.27v0.72h1.27V114.53z M198.9,115.66h-1.27v0.76h1.27V115.66z M202.25,113.48c0.79,0,1.04-0.02,1.1-0.02
			c0.07,0,0.09,0.02,0.09,0.09c-0.02,0.31-0.02,0.59-0.02,0.89c-0.02,1.59-0.09,3.22-0.29,4.45c-0.12,0.7-0.46,1-1.08,1
			c-0.28,0-0.5-0.01-0.71-0.02c-0.17-0.01-0.17-0.06-0.18-0.17c-0.01-0.18-0.07-0.35-0.14-0.48c0.33,0.06,0.64,0.09,0.98,0.09
			c0.33,0,0.49-0.18,0.57-0.69c0.18-1.08,0.26-2.77,0.26-4.6h-1.2c-0.04,1.01-0.15,1.99-0.36,2.8c-0.35,1.28-0.86,2.26-1.91,3.09
			c-0.08,0.06-0.11,0.09-0.15,0.09c-0.03,0-0.07-0.03-0.13-0.09c-0.11-0.12-0.25-0.21-0.4-0.27c1.13-0.71,1.68-1.72,2.04-3.03
			c0.18-0.66,0.28-1.6,0.33-2.59h-0.1c-0.78,0-1.02,0.02-1.07,0.02c-0.08,0-0.09-0.01-0.09-0.08v-0.42c0-0.07,0.01-0.08,0.09-0.08
			c0.05,0,0.29,0.02,1.07,0.02h0.12c0.01-0.38,0.02-0.76,0.02-1.13c0-0.62-0.01-0.86-0.07-1.23c0.23,0.01,0.44,0.03,0.65,0.07
			c0.07,0.01,0.11,0.05,0.11,0.09c0,0.07-0.02,0.12-0.05,0.21c-0.04,0.1-0.06,0.4-0.06,0.93c0,0.35,0,0.71-0.01,1.06H202.25z"/>
		<path d="M209.04,113.77c0,0.07-0.01,0.08-0.08,0.08c-0.05,0-0.26-0.02-0.96-0.02h-0.05v2.05c0.34-0.17,0.69-0.36,1.07-0.59
			c-0.01,0.14-0.01,0.25,0.01,0.4c0.03,0.2,0.02,0.2-0.16,0.3c-0.3,0.16-0.6,0.32-0.92,0.48v1.82c0,1.19,0.02,1.72,0.02,1.77
			c0,0.07-0.01,0.07-0.08,0.07h-0.46c-0.07,0-0.08,0-0.08-0.07c0-0.06,0.02-0.58,0.02-1.76v-1.55c-0.29,0.13-0.58,0.27-0.89,0.4
			c-0.2,0.09-0.29,0.15-0.34,0.2c-0.04,0.04-0.1,0.08-0.14,0.08c-0.04,0-0.08-0.02-0.11-0.08c-0.09-0.17-0.17-0.35-0.25-0.57
			c0.26-0.06,0.55-0.15,0.89-0.28c0.28-0.11,0.56-0.22,0.84-0.34v-2.33h-0.87c-0.07,0.44-0.16,0.89-0.29,1.29
			c-0.03,0.11-0.04,0.15-0.08,0.15c-0.04,0-0.08-0.02-0.16-0.06c-0.1-0.04-0.26-0.08-0.36-0.1c0.34-0.91,0.46-1.82,0.5-2.59
			c0.02-0.2,0.01-0.38-0.01-0.56c0.17,0.02,0.39,0.05,0.54,0.08c0.09,0.02,0.12,0.06,0.12,0.09c0,0.05-0.01,0.07-0.04,0.13
			c-0.03,0.07-0.05,0.15-0.06,0.27l-0.08,0.77h0.79v-0.81c0-0.71-0.01-0.98-0.07-1.37c0.25,0.01,0.44,0.02,0.64,0.05
			c0.07,0.01,0.11,0.04,0.11,0.09c0,0.06-0.02,0.1-0.04,0.18c-0.04,0.12-0.06,0.37-0.06,1.03v0.83H208c0.7,0,0.91-0.02,0.96-0.02
			c0.07,0,0.08,0.01,0.08,0.07V113.77z M212.98,113.11c0.84,0,1.11-0.02,1.16-0.02c0.08,0,0.1,0.03,0.1,0.1
			c-0.01,0.23-0.02,0.46-0.02,0.68c-0.02,2.03-0.11,3.32-0.32,4.62c-0.16,0.99-0.48,1.52-1.28,1.52c-0.23,0-0.57-0.02-0.89-0.05
			c-0.19-0.02-0.19-0.02-0.23-0.23c-0.04-0.19-0.08-0.32-0.15-0.45c0.46,0.08,0.82,0.12,1.18,0.12c0.51,0,0.7-0.45,0.8-1.1
			c0.19-1.23,0.3-2.42,0.32-4.67h-0.52c-0.66,2.8-1.68,4.55-3.58,5.94c-0.07,0.05-0.12,0.08-0.15,0.08c-0.04,0-0.08-0.04-0.14-0.12
			c-0.11-0.14-0.22-0.23-0.34-0.3c1.95-1.32,3.05-3.02,3.63-5.6h-0.97c-0.52,1.76-1.2,2.74-2.29,3.65
			c-0.07,0.06-0.11,0.09-0.14,0.09c-0.04,0-0.08-0.04-0.14-0.11c-0.1-0.12-0.23-0.22-0.34-0.27c1.09-0.78,1.91-1.83,2.33-3.36h-0.92
			c-0.23,0.39-0.5,0.77-0.83,1.16c-0.07,0.08-0.1,0.12-0.14,0.12s-0.07-0.03-0.14-0.1c-0.11-0.11-0.2-0.17-0.32-0.22
			c0.82-0.86,1.29-1.76,1.57-2.64c0.1-0.32,0.16-0.57,0.18-0.84c0.23,0.04,0.39,0.08,0.58,0.13c0.07,0.02,0.11,0.05,0.11,0.1
			c0,0.06-0.03,0.1-0.08,0.16c-0.07,0.08-0.12,0.24-0.2,0.47c-0.13,0.38-0.27,0.76-0.46,1.14H212.98z"/>
		<path d="M221.17,113.08c-0.18,1.69-0.69,3.35-1.32,4.37c-0.43,0.73-0.88,1.03-1.47,1.03c-0.75,0-1.46-0.82-1.46-2.27
			c0-0.92,0.42-1.9,1.16-2.59c0.74-0.69,1.74-1.11,3-1.11c2.24,0,3.57,1.31,3.57,3.22c0,1.63-1.01,2.94-3.18,3.49
			c-0.12,0.03-0.19,0.01-0.26-0.11c-0.06-0.1-0.19-0.25-0.39-0.37c1.98-0.39,3.12-1.46,3.12-3.13c0-1.48-1.15-2.53-2.58-2.53H221.17
			z M218.53,114.04c-0.67,0.66-0.96,1.48-0.96,2.16c0,1.09,0.45,1.56,0.81,1.56c0.34,0,0.64-0.22,0.93-0.73
			c0.51-0.9,1.04-2.45,1.17-3.91C219.69,113.22,219,113.56,218.53,114.04z"/>
		<path d="M230.05,114.44c0.12-0.05,0.13-0.05,0.17,0.02c0.32,0.57,0.54,1.11,0.74,1.71c0.02,0.08,0.02,0.11-0.11,0.15l-0.23,0.07
			c-0.12,0.04-0.14,0.04-0.16-0.04c-0.06-0.19-0.12-0.37-0.19-0.55l-0.9,0.09v2.67c0,1.09,0.02,1.41,0.02,1.46
			c0,0.07-0.01,0.07-0.08,0.07h-0.45c-0.07,0-0.08,0-0.08-0.07c0-0.06,0.02-0.37,0.02-1.46v-2.61c-0.37,0.03-0.73,0.05-1.06,0.07
			c-0.22,0.01-0.32,0.06-0.37,0.09c-0.03,0.02-0.08,0.04-0.12,0.04c-0.05,0-0.08-0.05-0.1-0.13l-0.1-0.55
			c0.23,0.02,0.42,0.03,0.65,0.02h0.13c0.27-0.34,0.51-0.69,0.75-1.04c-0.47-0.56-0.92-1.05-1.45-1.53
			c-0.07-0.06-0.06-0.09,0.01-0.19l0.15-0.22c0.07-0.1,0.09-0.1,0.15-0.04l0.4,0.39c0.27-0.41,0.52-0.82,0.73-1.25
			c0.12-0.25,0.17-0.39,0.2-0.56c0.18,0.07,0.38,0.16,0.54,0.24c0.08,0.04,0.1,0.08,0.1,0.13s-0.03,0.08-0.08,0.11
			c-0.07,0.05-0.11,0.1-0.17,0.21c-0.35,0.6-0.62,1.01-0.95,1.48l0.68,0.76c0.26-0.41,0.51-0.82,0.76-1.25
			c0.15-0.26,0.24-0.47,0.3-0.68c0.21,0.09,0.39,0.18,0.53,0.27c0.07,0.04,0.1,0.08,0.1,0.12c0,0.06-0.03,0.09-0.09,0.13
			c-0.1,0.07-0.18,0.19-0.35,0.46c-0.56,0.87-1.12,1.7-1.67,2.43c0.52-0.03,1.06-0.07,1.63-0.12c-0.1-0.24-0.21-0.47-0.33-0.7
			c-0.03-0.06-0.02-0.08,0.1-0.13L230.05,114.44z M228.2,117c-0.03,0.05-0.07,0.18-0.1,0.36c-0.08,0.54-0.2,1.19-0.43,1.86
			c-0.03,0.1-0.05,0.13-0.09,0.13c-0.03,0-0.07-0.02-0.13-0.06c-0.12-0.08-0.24-0.12-0.36-0.15c0.29-0.72,0.42-1.36,0.48-1.88
			c0.03-0.24,0.04-0.4,0.02-0.59c0.19,0.03,0.42,0.08,0.51,0.11c0.1,0.03,0.15,0.06,0.15,0.1S228.22,116.96,228.2,117z
			 M230.25,116.67c0.1-0.03,0.11-0.02,0.14,0.05c0.2,0.52,0.4,1.34,0.5,1.89c0.02,0.09,0.01,0.1-0.11,0.14l-0.24,0.07
			c-0.12,0.04-0.14,0.04-0.15-0.04c-0.11-0.61-0.29-1.41-0.46-1.92c-0.03-0.08-0.01-0.09,0.11-0.13L230.25,116.67z M234.33,111.58
			c0.92,0,1.22-0.02,1.28-0.02c0.07,0,0.08,0.02,0.08,0.1c-0.01,0.2-0.02,0.4-0.03,0.6c-0.04,1.26-0.13,2.11-0.3,2.46
			c-0.15,0.36-0.49,0.54-0.88,0.54c-0.29,0-0.53-0.01-0.74-0.03c-0.19-0.02-0.19-0.04-0.22-0.23c-0.03-0.13-0.08-0.28-0.14-0.39
			c0.34,0.05,0.67,0.08,0.97,0.08c0.25,0,0.38-0.11,0.47-0.26c0.14-0.26,0.23-1.27,0.26-2.31h-1.79c-0.09,1.56-0.65,2.51-1.92,3.24
			c-0.07,0.04-0.11,0.07-0.15,0.07s-0.07-0.04-0.14-0.13c-0.1-0.13-0.21-0.23-0.33-0.29c1.24-0.6,1.86-1.37,1.95-2.89h-0.37
			c-0.9,0-1.2,0.02-1.26,0.02c-0.07,0-0.08-0.01-0.08-0.08v-0.41c0-0.08,0.01-0.09,0.08-0.09c0.06,0,0.36,0.02,1.26,0.02H234.33z
			 M235.43,118.12c0,1.49,0.02,1.73,0.02,1.78c0,0.07-0.01,0.08-0.09,0.08h-0.44c-0.07,0-0.08-0.01-0.08-0.08v-0.48h-2.83v0.54
			c0,0.07-0.01,0.08-0.08,0.08h-0.44c-0.07,0-0.08-0.01-0.08-0.08c0-0.05,0.02-0.3,0.02-1.81v-0.86c0-0.87-0.02-1.14-0.02-1.19
			c0-0.07,0.01-0.08,0.08-0.08c0.06,0,0.34,0.02,1.18,0.02h1.52c0.83,0,1.12-0.02,1.17-0.02c0.08,0,0.09,0.01,0.09,0.08
			c0,0.05-0.02,0.32-0.02,1.05V118.12z M234.84,116.58h-2.83v2.3h2.83V116.58z"/>
		<path d="M246.65,115.38c-0.06,0.11-0.08,0.15-0.13,0.15c-0.03,0-0.08-0.02-0.15-0.05c-1.87-0.85-3.1-2.01-4.11-3.58
			c-0.96,1.67-2.11,2.7-3.9,3.65c-0.08,0.04-0.12,0.07-0.16,0.07s-0.07-0.05-0.13-0.15c-0.09-0.17-0.18-0.28-0.3-0.38
			c1.81-0.82,3.17-2.03,3.95-3.5c0.13-0.25,0.19-0.39,0.25-0.61c0.24,0.03,0.41,0.06,0.62,0.12c0.09,0.03,0.14,0.07,0.14,0.13
			c0,0.03-0.02,0.07-0.07,0.1c-0.04,0.02-0.07,0.04-0.09,0.07c1.11,1.69,2.39,2.79,4.37,3.56
			C246.83,115.08,246.74,115.21,246.65,115.38z M241.25,115.02c-0.03,0.11-0.06,0.31-0.06,0.94c0,1.33-0.23,2.04-0.64,2.66
			c-0.38,0.56-0.92,1.02-1.78,1.43c-0.07,0.04-0.12,0.06-0.15,0.06c-0.05,0-0.07-0.05-0.14-0.15c-0.08-0.12-0.21-0.27-0.35-0.37
			c0.97-0.35,1.57-0.82,1.9-1.35c0.34-0.54,0.53-1.18,0.53-2.29c0-0.47,0-0.89-0.07-1.26c0.23,0.01,0.49,0.03,0.68,0.05
			c0.07,0.01,0.12,0.04,0.12,0.09C241.29,114.89,241.27,114.93,241.25,115.02z M243.38,116.15c0-0.59-0.01-1.12-0.07-1.49
			c0.26,0.01,0.5,0.03,0.68,0.06c0.06,0.01,0.11,0.03,0.11,0.09c0,0.05-0.04,0.13-0.05,0.19c-0.02,0.1-0.05,0.59-0.05,1.14v2.53
			c0,0.85,0.02,1.22,0.02,1.28c0,0.06-0.01,0.07-0.08,0.07h-0.5c-0.07,0-0.08-0.01-0.08-0.07c0-0.06,0.02-0.43,0.02-1.28V116.15z"/>
		<path d="M255.49,113.51c-0.44,1.62-1.07,2.82-1.99,3.75c0.98,0.83,2.28,1.56,4,2.1c-0.12,0.12-0.22,0.3-0.3,0.46
			c-0.06,0.12-0.08,0.16-0.14,0.16c-0.03,0-0.08-0.01-0.15-0.04c-1.66-0.63-2.92-1.4-3.87-2.24c-0.97,0.86-2.22,1.59-3.85,2.2
			c-0.07,0.02-0.12,0.04-0.15,0.04c-0.06,0-0.08-0.04-0.14-0.15c-0.08-0.15-0.19-0.31-0.31-0.4c1.82-0.61,3.03-1.29,3.99-2.13
			c-0.96-0.99-1.57-2.16-2.04-3.75h-0.35c-0.95,0-1.27,0.02-1.32,0.02c-0.07,0-0.08-0.01-0.08-0.08v-0.46
			c0-0.07,0.01-0.08,0.08-0.08c0.05,0,0.37,0.02,1.32,0.02h2.49v-0.68c0-0.51-0.01-0.82-0.08-1.1c0.25,0.01,0.48,0.02,0.7,0.05
			c0.07,0.01,0.12,0.05,0.12,0.09c0,0.07-0.03,0.12-0.06,0.19c-0.05,0.1-0.05,0.24-0.05,0.76v0.69h2.64c0.95,0,1.27-0.02,1.32-0.02
			c0.08,0,0.09,0.01,0.09,0.08v0.46c0,0.07-0.01,0.08-0.09,0.08c-0.05,0-0.37-0.02-1.32-0.02H255.49z M251.17,113.51
			c0.43,1.39,0.96,2.42,1.88,3.33c0.87-0.88,1.4-1.92,1.77-3.33H251.17z"/>
		<path d="M262.55,112.61c0.08-0.35,0.1-0.6,0.09-0.96c0.31,0.08,0.52,0.15,0.78,0.27c0.11,0.05,0.14,0.17,0.04,0.26
			c-0.08,0.08-0.12,0.16-0.17,0.33c-0.15,0.49-0.28,0.96-0.43,1.45c0.32-0.04,0.73-0.07,0.97-0.07c0.87,0,1.3,0.44,1.3,1.64
			c0,1.29-0.22,2.48-0.55,3.2c-0.25,0.55-0.65,0.79-1.14,0.79c-0.41,0-0.77-0.07-1.02-0.18c-0.08-0.03-0.12-0.08-0.12-0.17
			c-0.01-0.17-0.03-0.39-0.12-0.6c0.44,0.19,0.81,0.28,1.16,0.28c0.29,0,0.48-0.1,0.67-0.52c0.25-0.57,0.45-1.58,0.45-2.81
			c0-0.78-0.15-1.06-0.69-1.06c-0.31,0-0.73,0.05-1.08,0.11c-0.58,1.73-1.23,3.29-2.04,4.73c-0.04,0.07-0.1,0.08-0.17,0.05
			c-0.1-0.05-0.29-0.18-0.4-0.27c-0.06-0.05-0.05-0.1-0.02-0.16c0.84-1.41,1.43-2.79,1.92-4.26c-0.41,0.06-0.82,0.13-1.32,0.22
			c-0.18,0.03-0.36,0.08-0.44,0.13c-0.11,0.07-0.2,0.07-0.26-0.05c-0.08-0.17-0.16-0.4-0.23-0.68c0.36,0.01,0.75-0.01,1.04-0.05
			c0.55-0.06,0.94-0.12,1.41-0.19C262.31,113.57,262.42,113.17,262.55,112.61z M266.17,113.43c0.06-0.02,0.1-0.01,0.15,0.04
			c0.7,0.6,1.28,1.47,1.61,2.42c0.02,0.07,0.03,0.12-0.03,0.17c-0.1,0.09-0.29,0.21-0.41,0.27c-0.08,0.05-0.15,0.04-0.17-0.06
			c-0.34-1.02-0.84-1.87-1.6-2.53C265.86,113.63,266.02,113.52,266.17,113.43z M266.38,111.89c0.04-0.03,0.06-0.02,0.1,0.01
			c0.4,0.28,0.84,0.77,1.13,1.21c0.03,0.04,0.02,0.08-0.02,0.11l-0.29,0.24c-0.05,0.04-0.1,0.03-0.13-0.02
			c-0.29-0.49-0.71-0.96-1.16-1.28L266.38,111.89z M267.21,111.24c0.04-0.03,0.07-0.04,0.11-0.01c0.4,0.31,0.85,0.75,1.14,1.17
			c0.03,0.05,0.02,0.08-0.03,0.12l-0.27,0.24c-0.04,0.04-0.08,0.04-0.12-0.02c-0.25-0.41-0.68-0.9-1.15-1.25L267.21,111.24z"/>
		<path d="M276.73,114.55c0.02-0.23,0.01-0.43-0.03-0.64c0.33,0.07,0.6,0.17,0.75,0.28c0.08,0.05,0.09,0.13,0.05,0.2
			c-0.05,0.07-0.09,0.15-0.11,0.3c-0.07,0.45-0.19,1.05-0.31,1.52c0.57,0.29,1.16,0.64,1.69,1.03c0.06,0.03,0.06,0.07,0.04,0.13
			c-0.07,0.14-0.18,0.37-0.26,0.5c-0.04,0.06-0.09,0.04-0.13,0c-0.56-0.46-1.05-0.77-1.53-1.03c-0.5,1.3-1.05,2.11-2.1,2.85
			c-0.12,0.09-0.16,0.1-0.25,0.04c-0.14-0.13-0.3-0.2-0.51-0.25c1.26-0.87,1.83-1.69,2.26-2.9c-0.71-0.35-1.53-0.62-2.46-0.71
			c-0.45,0.97-0.76,1.54-1.1,1.91c-0.39,0.45-0.79,0.64-1.23,0.64c-0.5,0-1.01-0.35-1.01-1.13c0-1.11,1.24-2,2.91-2.01
			c0.38-0.92,0.7-1.7,1.03-2.78c-0.69,0.07-1.41,0.15-1.76,0.2c-0.24,0.03-0.36,0.07-0.44,0.09c-0.04,0.02-0.08,0.03-0.12,0.03
			c-0.06,0-0.09-0.02-0.12-0.06c-0.07-0.14-0.14-0.39-0.21-0.72c0.27,0.06,0.48,0.07,0.87,0.05c0.44-0.02,0.98-0.07,1.53-0.14
			c0.25-0.04,0.37-0.07,0.46-0.14c0.07-0.06,0.16-0.05,0.21-0.02c0.16,0.1,0.32,0.24,0.43,0.38c0.08,0.1,0.08,0.17,0,0.24
			c-0.1,0.1-0.15,0.25-0.24,0.48c-0.33,0.92-0.64,1.63-0.97,2.43c0.84,0.08,1.65,0.32,2.43,0.64
			C276.61,115.45,276.69,114.99,276.73,114.55z M271.08,117.23c0,0.33,0.17,0.56,0.45,0.56c0.24,0,0.52-0.13,0.81-0.49
			c0.21-0.25,0.53-0.73,0.85-1.46C271.99,115.88,271.08,116.51,271.08,117.23z"/>
		<path d="M283.95,111.58c0.11,0.04,0.16,0.09,0.16,0.16c0,0.04-0.03,0.09-0.05,0.13c-0.05,0.08-0.06,0.17-0.08,0.39
			c-0.04,0.46-0.06,0.83-0.08,1.34c0.15,0.08,0.25,0.14,0.35,0.23c0.06,0.05,0.07,0.11,0.01,0.2c-0.14,0.23-0.27,0.47-0.42,0.77
			c-0.01,0.13-0.01,0.24-0.02,0.38c0.41-0.47,0.76-0.83,1.13-1.17c0.61-0.59,1.19-0.99,1.77-0.99c0.69,0,1.07,0.45,1.07,1.25
			c0,0.44-0.03,1.1-0.09,1.86c-0.05,0.77-0.1,1.32-0.1,1.65c0,0.63,0.17,0.78,0.5,0.78c0.28,0,0.56-0.12,0.83-0.38
			c0.17-0.17,0.39-0.44,0.61-0.95c0.07,0.26,0.13,0.39,0.23,0.51c0.07,0.1,0.09,0.17,0,0.32c-0.46,0.74-1.03,1.14-1.72,1.14
			c-0.71,0-1.1-0.38-1.1-1.31c0-0.45,0.03-1.02,0.08-1.71c0.05-0.72,0.08-1.23,0.08-1.72c0-0.55-0.14-0.86-0.46-0.86
			c-0.36,0-0.78,0.24-1.33,0.74c-0.45,0.42-0.87,0.86-1.51,1.58c0,1.04,0.03,2.37,0.04,3.77c0,0.06-0.02,0.09-0.1,0.1
			c-0.1,0.01-0.32,0.02-0.48,0.02c-0.05,0-0.08-0.03-0.08-0.11c0-1.47-0.01-2.51,0.02-3.36c-0.48,0.68-0.95,1.39-1.47,2.17
			c-0.06,0.09-0.09,0.1-0.17,0.05c-0.1-0.07-0.29-0.23-0.37-0.34c-0.06-0.05-0.03-0.11,0.02-0.18c0.81-1.05,1.4-1.87,1.99-2.78
			c0.02-0.35,0.02-0.62,0.03-0.87c-0.5,0.15-0.96,0.3-1.37,0.47c-0.11,0.04-0.2,0.13-0.26,0.13c-0.06,0-0.11-0.04-0.15-0.1
			c-0.11-0.15-0.19-0.33-0.29-0.58c0.27-0.01,0.48-0.05,0.7-0.1c0.36-0.1,0.79-0.22,1.4-0.42c0.01-0.46,0.02-0.9,0.03-1.35
			c0-0.32,0-0.66-0.07-0.99C283.5,111.47,283.78,111.52,283.95,111.58z"/>
		<path d="M294.77,115.64c0.72-0.47,1.43-0.71,2.15-0.71c1.44,0,2.33,0.89,2.33,2.19c0,1.49-1.18,2.57-3.3,2.57
			c-1.2,0-1.74-0.54-1.74-1.18c0-0.52,0.46-1.02,1.17-1.02c0.9,0,1.51,0.58,1.7,1.43c0.86-0.28,1.46-0.84,1.46-1.82
			c0-1.02-0.78-1.64-1.73-1.64c-0.99,0-1.98,0.51-2.75,1.13c-0.32,0.25-0.58,0.52-0.88,0.82c-0.08,0.08-0.13,0.09-0.2,0.02
			c-0.12-0.12-0.27-0.27-0.37-0.4c-0.04-0.05-0.03-0.09,0.04-0.15c0.79-0.69,1.3-1.2,2.26-2.23c0.58-0.63,1.18-1.27,1.95-2.18
			c-0.83,0.13-1.61,0.28-2.5,0.45c-0.13,0.02-0.25,0.05-0.35,0.09c-0.07,0.03-0.15,0.05-0.19,0.05c-0.07,0-0.12-0.04-0.16-0.12
			c-0.09-0.18-0.16-0.37-0.24-0.69c0.33,0.04,0.61,0.04,0.88,0.01c0.79-0.08,1.61-0.19,2.49-0.36c0.12-0.02,0.24-0.05,0.31-0.09
			c0.04-0.03,0.1-0.07,0.14-0.07c0.05,0,0.1,0.02,0.18,0.08c0.19,0.15,0.34,0.3,0.43,0.42c0.05,0.06,0.07,0.12,0.07,0.17
			c0,0.08-0.05,0.15-0.15,0.19c-0.13,0.04-0.24,0.11-0.47,0.35c-0.89,0.94-1.56,1.64-2.56,2.66L294.77,115.64z M295.4,118.03
			c-0.32,0-0.61,0.16-0.61,0.47c0,0.33,0.36,0.61,1.03,0.61c0.22,0,0.42-0.01,0.65-0.05C296.34,118.49,295.97,118.03,295.4,118.03z"
			/>
		<path d="M309.37,113.42c0.04-0.01,0.07,0,0.09,0.04c0.06,0.14,0.13,0.37,0.16,0.51c0.01,0.07-0.02,0.09-0.06,0.1
			c-0.93,0.28-1.76,0.41-2.63,0.49c0.01,1,0.09,1.83,0.19,2.71c0.94,0.26,1.97,0.72,2.85,1.29c0.06,0.04,0.07,0.07,0.05,0.13
			c-0.05,0.14-0.2,0.38-0.3,0.49c-0.04,0.04-0.06,0.05-0.11,0.02c-0.89-0.63-1.64-0.99-2.46-1.27c0,0.06,0,0.16-0.01,0.28
			c-0.01,0.83-0.67,1.45-1.8,1.45c-1.23,0-1.91-0.51-1.91-1.25c0-0.8,0.88-1.33,1.94-1.33c0.39,0,0.76,0.02,1.08,0.07
			c-0.1-0.94-0.17-2.1-0.18-3.25c0-0.44-0.01-1.06-0.01-1.53c0-0.28-0.02-0.57-0.09-0.82c0.27,0.02,0.54,0.06,0.79,0.13
			c0.12,0.04,0.13,0.12,0.08,0.22c-0.06,0.13-0.08,0.24-0.1,0.52c-0.02,0.32-0.02,0.85-0.02,1.49
			C307.73,113.85,308.57,113.68,309.37,113.42z M305.35,117.65c-0.85,0-1.33,0.33-1.33,0.74c0,0.44,0.47,0.65,1.24,0.65
			c0.76,0,1.22-0.37,1.22-1.04c0-0.1,0-0.16-0.01-0.23C306.08,117.69,305.71,117.65,305.35,117.65z"/>
	</g>
</g>
</svg>
